<svg width="27" height="27" viewBox="0 0 27 27" fill="none" xmlns="http://www.w3.org/2000/svg">
<path fill-rule="evenodd" clip-rule="evenodd" d="M3.22923 13.5C3.22923 7.82758 7.82764 3.22917 13.5 3.22917C19.1724 3.22917 23.7709 7.82758 23.7709 13.5C23.7709 19.1724 19.1724 23.7708 13.5 23.7708C11.4795 23.7708 9.59866 23.1887 8.01177 22.1832C7.71644 21.9962 7.35456 21.9461 7.01956 22.0461L3.54058 23.0844L4.85047 20.0193C5.00529 19.6571 4.97379 19.2421 4.76605 18.9074C3.79193 17.3377 3.22923 15.4864 3.22923 13.5ZM13.5 0.8125C6.49295 0.8125 0.812567 6.49289 0.812567 13.5C0.812567 15.721 1.38428 17.8117 2.38899 19.6295L0.30561 24.5043C0.121434 24.9353 0.203071 25.4339 0.515075 25.7836C0.827079 26.1334 1.31318 26.2711 1.76228 26.137L7.19908 24.5146C9.05634 25.5791 11.2087 26.1875 13.5 26.1875C20.5072 26.1875 26.1875 20.5071 26.1875 13.5C26.1875 6.49289 20.5072 0.8125 13.5 0.8125ZM16.2701 16.1371L14.6822 17.2556C13.9384 16.832 13.1162 16.2406 12.2913 15.4158C11.4339 14.5584 10.7982 13.6732 10.3295 12.8612L11.3387 12.0046C11.7718 11.637 11.8903 11.0173 11.6235 10.5158L10.3376 8.09909C10.1645 7.77367 9.85228 7.54509 9.48977 7.47832C9.12724 7.41156 8.75408 7.51392 8.47636 7.7563L8.09512 8.08902C7.17832 8.88917 6.6361 10.204 7.0855 11.5354C7.55139 12.9155 8.54567 15.0877 10.5825 17.1246C12.774 19.3161 14.9999 20.1791 16.3017 20.5143C17.3505 20.7842 18.343 20.4223 19.0424 19.8525L19.7572 19.27C20.0629 19.021 20.2278 18.6383 20.199 18.245C20.1702 17.8517 19.9512 17.4972 19.6124 17.2953L17.5844 16.0869C17.1748 15.843 16.6601 15.8625 16.2701 16.1371Z" fill="white"/>
</svg>
