<?xml version="1.0" encoding="UTF-8"?>
<svg version="1.1" viewBox="0 0 1600 1600" width="1280" height="1280" xmlns="http://www.w3.org/2000/svg">
<path transform="translate(0)" d="m0 0h1600v1600h-1600z" fill="#FFA07A"/>
<path transform="translate(1336,336)" d="m0 0 6 3 5 7 4 13 1 7v13l-4 16-9 21-10 18 7-6 6-10 13-27 9-12 8-7 15-6 6-4h5l-2 9-6 9-15 14-9 11-17 17-8 7-6 5-7 8-8 4-4 1-2-1v2h9l10-2 16-1 7-3 9-7 7-7 9-5 22-6 7-3 15-2 9-6 10-7 11-4h6l5 3-3 6-10 9-13 11-11 6-51 9-14 4-13 6-12 2-13 1-3 1 24 5 16 3 5-1 14-4 6-1h31l15 3 10 4-4 4-12 3-20 2v2l5 2 12 6 4 4-2 5-10 7-21-1-25-5-36-12-17-7-12-2h-19l-22 3-5 1 34 6 12 4 14 8 16 3 13 7 10 9 6 7 4 6-1 3-6 2h-9l-11-4-14-10-6-5-15-6-13-7-9-9-16-7-8-2h-7l-5 3-6 3-7 2-6 8-29 14-29 15 2 4 8 5 6 2 14 1 15-2 17-6 5-1h32l16 3 14 7 3 3-1 5-3 2h-10l-19-2h-26l-12-3-36-2-8-2 2 4v22l-5 5-9 3h-8l-8-3-4-4-1-7 3-7 8-4h16l5 1-2-4-4-3v-5l-9-3-5-3-8 1-11 7-21 13-19 12-20 12-16 16 22-4 18-4 19-5h15l13 3 20 2 6 3 2 4-2 2-10 1-5 5-5 4-10 3-41 2-9 1h-17l-7-3-17-1 8 4 12 4 14 8 8 2 13-1h15l13 5 15 3 16 5 20 3 12 6 11 9 11 7-3 4-6 2h-13l-18-4 2-2 9 1 9 2h9l2-2-10-5-23-9-25-4-42-14-12-2 6 7 16 8 35 14 14 3 1 2-1 2 6 1 17 8 13 9 12 11 3-8 5-6 15-8 6-2v7l-4 10-7 8-9 8-2 2 4 5v4h-7l-4-1-4 8-9 9-12 9-7 7-1 2 13-1 28-5 30-8 21-8h3l3-10 1-7 1-22 2-15 5-15 6-10 5-4 5-2 4 1v14l-3 16-5 10-7 11-8 23-4 7 19-4 12-5 8-6 8-9 10-14 12-16 9-10 10-7 12-6 3-1h9l-1 7-5 7-14 11-17 14-17 13-9 7 10-3 11-4 5-1h9l4 2-4 5-12 5-12 1-6 2-13 1-12 6-8 5-5 2 8 3h10l24-6 25-3h22l8 3-1 5-3 3-21 7-5 1h-32l-16-2-16-5-9-3h-9l-16 6-17 8-9 3-13 2 53 2 19 3 13 5 2 4-6 4-5 1-26 1-16-2-21-6-27-10h-6l-9 3-22 3v2l6 2 31 4 14 4 9 6 6 8 10 6 8 12 4 4v4h-7l-9-3-9-7-11-10-9-5-11-3-8-7-10-6-13-5-8-2h-15l-12 4-21 1-9 2-10 4-7 1 50 17 11 3-1 5-6 5-6 2h-20l-21-2-28-7h-3l12 6 13 5 11 8 12 11 5 7 4 9 6 7v4l-2 1h-8l-6-3-9-9-6-7-11-7-9-10-7-9-10-10-3-5v-2l-10-2-17-9-9-6-26-5 6 9 7 9 5 6h15l-2 4h-9l-6-1 1 6v8l-3 7-6 4-3 1h-9l-9-4-4-5-1-2v-6l-4 1h-9l-9-3-4-5v-10l5-6 7-3h14l8 4 5 6 5-2 1-6-4-7-7-5-3-1h-14l-25 9-14 3h-16l-16 4-12 6-14 11-4 2-2 7-10 1-11 5-33 11h-3l-2 11 10 3h27l11 4h13l17-8 20-12 12-5 9-2h32l-1 4-5 4-21 11-15 5-23 5-15 2h-13l1 4 5 2 8 3 28 4 12 4 11 7 16 13 13 10 12 5 4 4v3l-12 2-14-1-15-5-7-3 9 10 12 13 7 11 3 9v9l-9-3-10-8-22-22-9-11-6-10-3-8v-4l-5-2-20-11-9-8-6-12-8-4-21-3-6-1 5 5 6 4 5 8 3 11v21l-5 28-3 14-4-2-4-5-4-12-2-12v-17l2-26-2-11-3-6-12-2-4-4-1-3-8 1-3 1h-19l-21 5-9 2h-16v-4l-2 1v3l-3 1h-14l-6-1 3 11 5 5 8 16 4 7 1 9-5 13-3 8-4-2-3-7-3-16-4-10-3-28v-4l-15-1h-21l-14 5h-6l-3 9-5 4-3 1h-13l-6-4-3-5 1-7 7-6 3-1h10l7 4v2l3-1 12-1 3-1 1-3-9-3-13-3-25-3-25-9-12-4-17-2-9-5-10-7-13-4-8-2 8 16 8 12 12 14 7 7 7 8 20 20 8 7 18 18 13 10 18 10 37 16 27 13 19 10 28 13 5 1 3-8 6-4 3-1h11l10 4 5 6 2 4h30l-3 3-7 2h-19l-8 7-4 3h-3v2h9l5 2 2 3 5-8 3-1h15l7 6v9l5 1h9l7-3 1-7h-7l-8 3h-5v-3l1-1 12-2 1-1h8l-4-8-7-6v-2l6 1 6 5 2 3h2l3-5 4-24 4-6 12-9 6-3 4-1 14 1 8 1 1 2-4 8-8 7-17 9-10 10-7 8-8 7 2 5-3 1-4 12h26l11-4 7-1h14l25 1 15-2 9-3 2-4 14-9 10-7 4-4 9-4 15-10 15-6 21-8 10-6 1-2v-8l-4-7-5-7-3-8-8-7-10-6-9-10-10-7-9-18-8-10-1-8 13 2 14 7 10 9 9 12 13 21 9 14 4 10 1 5v10l-1 7 18-6 21-8 13-4 9-2 7-6 5-8 1-9-5-2-8 3h-14l-8-4-3-4-1-6 3-6 6-4 4-1h11l6 3 4 5 3 10 2 1 3-12 4-27 4-11 10-21 9-25 7-11 8-6 6-1-1 10-3 10-4 25-4 10-10 18-4 11-3 11-9 10-6 9v9h2l11-12 7-8 17-17 13-10 13-8 15-7 17-5 21-3h5l-3 6-7 6-10 6-19 8-13 10-10 7-11 5-16 4-11 4-9 8-10 15-3 5 22-5 21-6 7-1h29l9-2 8-6 7-10 13-27 11-15 2-4 1-9 8-16 6-9 8-7 10-4 8-4h2l-1 8-4 6-6 6-11 26 1 1 8-10 11-16 4-5 9-4 28-5h8l1 4-7 6-25 13-19 12-13 10-8 6h-5l-6 10-9 10-11 9-10 9-6 7-4 7 2 1h22l8-3 3-10 7-8 7-9 7-6 26-12 12-6 6-2h19l16 5 14 4-1 3-7 4-9 2-14-1-4-1h-8l-30 13-33 17-8 6-3 6h26l11-4 14-7 21-7 6-1h12v10l-4 6-6 5 1 1h8l9-5 13-8 20-9 19-7 6-1h14l11 3 2 4-8 7-20 9-14 4-36 1-10 4-8 2 20 3 32 1 2 3h18v2l-4 2-19-1 4 4 8 5h31l5 5-1 2-3 1h-16l-18-1-5-3-8-9h-2l6 12-1 3-4-5-6-11-12-4-17-2 15 15 11 6 8 8 10 15 17 26 6 12 2 7v19l-3 10-4-2-8-10-8-15-11-29-7-16-6-11-9-13-5-9-16-11-9-4-5-1h-10l-12 4-14 5-8 1-11 2-17 5-5 1h-8l-10-4-8-3v4l6 2 6 4v3l5 1h42l36 9 20 7 25 10 8 7-1 4-12 6-4 1h-15l-21-7-31-9-19-7-13-10-10-6-8-3 2 5 12 13 14 9 6 7 6 12 5 17 3 19 1 10v19l-3 9-5 4-12-36-11-40-3-20-4-8-16-16-14 1-4 6-6 4-11 1-11-4-4-5-1-2 1-9 4-5 6-3h10l10 5 6 6v2l9-1-7-12-8-11-7-7-2-1h-23l-25 4-29 6-2 1 5 5 21 10 16 10 13 11 11 11 8 12 8 20 4 8v7l-9-2-9-7-13-15-11-13-14-19-14-20-4-6-14-7-1-1-9 1-31 7-16 6-11 5v1l22 4 20 6 16 7 10 8 7 7 9 11 8 7 10 7 3 5-12-2-27-10-5-2-9-8-14-10-6-9-11-7-13-7-4-1-18-1-13 5-25 11v3l6 2 4 3 3 8 5 9 1 6v22l-4 17-6 12-5 6-3-1-1-5v-29l5-45-6-2-5-2-13 5-15 10-14 10-6 2-3 10-3 3-5-1 2-5-3-1-1 6-6 2-13 2h-13l-3-2 7-2h-9l1 4-6 1-3-1 1 3v8l-6 9-10 10-19 14-7 6-1 3 5 1 12 5 5 3h9l11-2h7l-1 6-1 2 6-1 8 2 14-8 14-5 12-1-1 4-6 8-1 4 5 3h79l19-2h13l7 1h15l4-3-1-5-8-5-1-4-7 3-5 4-4 1h-13l-8-4-2-4 1-7 4-4 5-4 19 4 3 4v4l9 2 10 7 4 4-1 7-1 2h15l14 3 9-2 7-5 8-10 8-8 13-10 11-7 12-6 15-5 17-3h20l6 1-2 4-8 5-29 11-15 7-25 13-16 5-9 6-4 5h7l20 4 11 1 36 1 18 3 25 5h14l16-10 19-10 15-5 18-3h13l17 2 22 5v3l-10 5-15 4h-25l-25 5-27 2-8 3 22 6 21 5 11 4 16 1 4 3 25 4 18 5 16 7 11 7 7 9 4 9 1 5v7l-4-2-10-9-19-10-6-3-7-7-28-15-14-6-8-1 8 8 16 12 19 13 10 9 8 11 8 16 6 18 2 11-5-2-5-5-10-12-10-15-10-17-13-18-11-12-7-7-13-8-9-4-16-4-11-4-4-1 3 7 8 4 16 6 15 9 13 10 12 11 8 8 3 7-9-2-11-5-7-2-14-11-15-13-12-11-11-9-6-7-1-3-10-2-13 1-1 1 6 18 14 27 8 16 4 12 2 17-2 14-2 1-4-4-5-12-12-29-9-22-4-17-1-18-2-7-17-2-42-5-53-5-4-1 2 8 3 5 13 8 13 7 14 10 14 11 12 11 14 14v1l-9-1-16-6-16-9-10-8-10-9-8-8-11-14-10-14-2-5-9-2-37-4-17-1h-28l-18 1 5 7-2 5-6 5-11 5h-6l-3 10-6 5-3 1h-11l-8-4-3-4-1-5 3-7 10-4h7l8 2h14l8-3 4-3-1-4-11-4-7-1-49-1-8-3-5 1-13 14-11 7-15 8-8 5-22 7-7 4 48 5 12 3-1 3-5 4-7 8-10 5-6 1-32 2 6 4 21 9 7 6v8h-12l-16-2h-6l12 11 7 9 15 2 13-1 10-4 5-5 17-5 14-7 9-8 10-13 9-10 7-8 10-11 7-8 8-8 10-7 12-6 7-2h5l-2 5-10 8-8 7-14 18-8 11-11 12-7 8-9 8-12 6-21 6-13 7-7 3-3 4 6 2 27 4h27l11-4 11-8 8-9 11-16 10-12 8-7 9-10 8-8 13-10 5-2h9l-2 6-9 10-8 10-10 15-9 10-13 10-19 12-17 11-6 4 6 3h21l8-1h11l3 5v13l-5 10-8 10-11 9-23 14-7 5-7 2-10 2-6 1 1-6 7-8 13-12 11-9 22-12 14-11 1-2-21-3-31-4-22-1 1 2v13l-5 8-8 6-6 2h-4l9 39 2 14v18l-3 10-5 5-3-1-2-8-4-11-8-50-3-10h-3l-5 6-10 18-7 7-14 8-9 12-6 4-3 1-19 1-13 4-12 2-5 8-4 2h-12l-9-4-3-2-1-5 1-8 5-4 6-2h8l9 3 6 7 43-8 6-2 2-6h-11l-8 7-6 2h-8l-7-3-5-6-1-7 3-6 6-3 8-1 9 2 8 7 1 4 16-1 4-4 1-2 12-6 9-12 7-11 7-8 2-2-3-12-6-11-9-12-14-1 8 18 5 17 2 16-5-1-11-11-10-15-7-13-18 18-14 11-12 8-1 24-3 10-6 5-3-3-5-15-4-10v-2l-6 3-8 1-3-1 1-8 10-10-1-14v-31l-5-12-1-7 3 1 7 16 1 3v9l-1 19 3 17 9 29 3 8h3l2-5 1-11v-15l-2-18-5-20-6-14-10-9-1-3 5 1 8 7 6 12 7 21 14-8 23-11 5-2-3-8-4-3-21-6-19-9-19-3-9-4v-2h18l17 5 26 11 7 2-5-14v-4l-20-3-11-4-14-9-28-7-20-10h-16l-12-3-9-3 10 11 15 11 21 11 9 2h6l3 2v2h-11l11 1 3 2-1 3-6 1v30l-4 10-10 18-14 28-7 9-9 7-10 4-2-2 1-6 7-21 10-18 13-21 8-10 11-10 1-14 2-6-9-1-15-6-17-9-12-9-11-9-6-7-7-11-12-14-18-18-11-9-3-2 2 9 6 9 8 9 5 10 8 29 2 11 1 17-3 17-6 15-1 14-2 2-5-3-4-5-2-8-3-37-8-62-2-13-11 14-8 8-7 4 1 15 5 8v11l-5 17v8l3 6-1 3-6 4 1 5 8 19 3 11 3 24 4 8 5 5 9 8v2l8 1 10 4 22 12 10 9 10 11 5 8 1 3v7l-2 3-17-9-17-12-11-10-8-7-11-11-7-8-8-9v8l4 12 10 15 7 11 5 10 3 12-2 10-1 2h-6l-5-3-6-10-6-15-4-18-2-15-5 12-1 2h-11l-4-10-5-27v-4h-2l-1 12-6 28-6 21-6 16-6 10-7 6-5 1-2-3-1-5v-10l2-15 6-14 11-38 7-14 13-19 1-1 3-28-3 3-4 10-7 7-11 7-8 3h-7l-5-2 1-7 3-6 1-6 4-3 6-15 10-16 13-16 10-10 7-10-1-5-1-3-1-12-11 4-4-1v-11l-7 2-1 1-2 22-5 19-6 16-7 14-2 2h-6l-3-4v-11l5-16 5-8 10-12 4-10 1-6-7 4-6 4-8 1-8-5-10-3h-7l-6 3-6 6-5 1h-8l-10-3-5-4-1-9 3-5 5-4 4-1h10l8 4 4 4 1 5 4-1h11l14 5h11l9-8 15-8 5-4 7-19-15 4h-10l-2 5-5 4-10 3-11-1-6-3-3-3h-14l-11-4h-9l-5 6-4 5-6 2h-16l-9-2-4-5-1-2v-8l5-6 8-4 4-1h11l8 3 4 5 1 2h12l16 4 8 1 2-10 5-4 9-3h6l-4-9 1-8 5-5 8-3h13l9 3 5 5 1 8 3-1-2-7-9-11-5-9-5-4-1 4-11 1-8 6-19 4h-3l-1-4h-16l-9 4-8 7-4 2h-10l-9-4-7-5v-9l2-6 5-3 4-1h10l9 3 6 7v2l16-3 16 2 5 1h8l6-3 10-9 3-2-1-5-2-3-9-1-2-2 1-5 3-2h4l-3-12h-3l-15 8-14 4-7 1-8 16-5 2-4-4 1-9 4-6 2-2-3-1h-9l-13 2-8 6-9 3h-14l-6-4-3-4v-10l5-6 8-3h9l10 4 5 6v2h11l16 1h15l13-2 4-2-5-2-7-2 1-3 11 2 8 1 5-5 3-5-2-6-1-8h-8l-7 2-12-1-3 12-5 4-9 1-12-3-2-3v-10l3-6 3-1h13l8 3-3-7-6-4-4 1-10 4h-15l-5-3-3-7 1-6 5-5 6-3h13l5 3 3 3 1 8 6 1 9 7 8 7 8-1 4-1h7l1-8 5-12-1-9-3-8-3-17-1-4v-15l-14-14-7-8-39-39-10-13-12-17-11-12v16l2 28-5-1-1-1-1-24-1-8v-10l1-7-8-7-12-16-9-13-7-8v-2l-8-4-1 5 4 6 5 8 1 7v25l-3 7h-4l-4-5v-12l3-16v-6l-1-4h-2l2 7-5 6-5 15 3 9 4 16 2 17v21l-2 19-2 8-4 3-5-1-3-5-2-10v-21l4-18v-14l-1-13v-13l6-7-1-10 3-5 3-21 1-6-3-4v-6l-7-6-9-11-13-16-7-8-13-9-4-4-7-9-17-17-6-9-14-8-8-7-30-11-21-8-5-5 1-2 9 1 9 5 3 1 3-2h5l1 6 8 2 10 4 9 2 11 8 7 3 2 6 8 7 5 6 4-1 5 5 6 4 1 7 6 4 3 1-1 4 12 11 12 14 12 12 5 4 2 7 8 6 4 11v2l5-3h2l-1 8 10 13 11 14 10 14 3 5 10 5 3 3v3l5-2v7 3l12 16 11 13 11 12 9 10 45 45v22l5 19 3 8-7-27v-14l3-7 8 2 8 8 16 8 24 10 12 7 9 4 4 3 12 3 23 12 30 15 18 11 14 11 3 3 5-1 7-2 16 1 20 3-24-6-13-1h-7l-12-6-1-3-22-12-53-26-27-14-21-10-25-9-11-8-9-7-7-3-6-10-11-11-11-9-14-14-7-8-11-12-11-14-9-12-5-10-2-8 7-2-9-1-5-1-8-11-9-11-13-16-10-14-6-12-7-6-3-6-12-13-7-8-9-10-9-11-3-4 4 2 12 11 11 11 9 11 14 15 5 7 6 12 10 14 2 3v-8l-2-14v-15l3-6 5-4h5l2 3v32l-3 13-2 4 1 6 9 11 10 7 12 5 20 7 18 8 6 2 10 1 10 5 15 3 9 6 12 2 14 1 3 1-3-10-6-7-5-4-9-22-6-8-10-7-1-4 13 4 9 7 7 6 8 10 5 12 4 23 27 7 7 1h17l3-1h11l7-4 6-5 2-1-20-4-5-3h-11l-3 5-8 4h-12l-6-3-4-5-1-8 5-6 8-3h7l8 3 4 5 1 2 15 2 11 4 15 4 7 4 3 4 2 6 40-8 19-3 6-3 3-3 25-7 21-8 5-2 7-8 14-14v-11l-4-8v-6l-1-1h-6l-8 5-16 1-6 8-8 4h-12l-6-2-5 6-8 3-10-1-10-6-3-6 1-8 2-5-4-3 1-2 9 3 14 2 5 1 4-5-12-3-6-7-1-6 3-8 6-5 4-1h10l6 3 7 8 2 1 13 1 20 6v1h-7l-11-2h-11l-6 3-3 4 10 2 6 3 4 5 1 2 1-1h13l10-6 6 1-3-6-1-3 4 1 6 7v2l3-2 3-10 10-13 11-12 8-7 5-4 3-1 20-1 10-2h6l1 3-6 8-11 7-34 12-6 4-10 7-7 8-3 10h4v4l-2 1 1 13-4 10 24-16 16-12 13-11 5-6 6-11 11-13 13-13 6-7v-10l6-18 1-5 3 1 1 6-6 14-1 6 6-3 7-10 6-11 6-6 3-17 20-25 7-7h2l-1-2-5-2v-1h6v-2h-6l-4 2-14-4-6-1-1-2h-12l-10-3v-1h9l-15-2-20-1-4-2 1-1-3-1v2l-11-3-18-3-32-3 4 6 11 5 8 4 32 11 21 10 11 8 9 8 8 11 1 5-2 1-25-9-17-8-10-4-7-5-6-9-10-6-11-7-4-5-13-9-6-8h-17l-27 3 8 9 11 9 8 10 3 9v1h-7l-19-5-16-7-20-12-19-13-11 1-51 9-19 5-10 4h-11l-3 1 2 2-3 3-16 4-21 9-4 1 2 5 4 4 5 2 6 1h11l32-4h22l10-1h16l5 4-1 4-8 7-16 7-16 4h-13l-10-3-2-1-15-2-15-5-10-6-10-9-4-3-32 9-36 10-14 3v2l16 9 9 3 7 1 19 1 20 6 33 11 21 10 4 3-2 4-5 2h-16l-23-4-21-5-19-7-17-8-16-10-10-8-7-7-24 2-17 1-22 4-25 4h-31l-11-3h-10l-2 9-5-1-4-2-2-9-17-17-5-6-8-4-16-12-17-9-53-20-9-4 11 23 15 35 14 33 9 20-1 2-4-4-8-16v8l9 20 7 22v13l-5 1-5-5-10-28-4-17v-17l4-4-27-63h-2l-1 1-8-1-16-7-17-9-8-5v7l6 9 13 13 4 8 7 25 5 5 1 9 6 12 6 18 3 11 15 8 5 6-1 3-6-4-8-6h-2l5 12 12 20 10 17 6 15 4 15 1 10v9l-2 10-4 17-4 21-5 12-1 36-3 19-5 16-6 12-6 5h-4l-4-7v-10l8-19 7-16 7-13 1-4v-10l-4 4-14 23-12 18-2 8-7 8-6 11-13 13v11l-7 2-10 14-12 17-10 14-3 8v18l6 24 4 15 1 5v19l-4 12-3 1-8-7-5-11-5-31v-19l6-11 1-4-10 15-9 14-5 12-3 14-5 4 1 5 7 9 13 10 10 7 10 9 7 11 8 18-1 5-9-2-15-8-11-12-9-7-7-10-5-10-5-16-1-4h-2l-1 5v8l3 11 8 16 8 18 10 27 4 19 4 6 3 5-9-2-6-4-7-7-10-19-6-15-3-13-4-36v-12l3-10 6-8 7-5 4-15 6-11 11-16 4-8-10 3-5 3-5 8-8 8-13 10-10 12-10 4-11 2v-10l3-9 6-8 10-9 16-9 13-7h11l6-3 8-6 6-3 7-11 12-16 13-16 3-4h-9l-8 3-4 5-1 2-7 3h-3l1-6h-6l-7-1-19 6-23 4-10 1h-9v-4l-10-3 6 5v6l-4 5-7 3h-14l-9-3-5-5v-9l5-5 7-2 11 1h2l-6-5-1-7 3-5 5-4 11-3h11l11 3 4 8v5l8-1h10l17 2 20 4h5l9-7 12-4 8-1 2-9 8-6 9-10 7-9 4-5 3-10 10-13 14-25 9-17 5-12-1-1-8 8-11 14-7 10-8 12-8 8-6 2v-11l4-16 7-14 9-10 8-6 8-3 13-3 4-3 2-16 2-14v-13l-3-19-4-13-2 22-3 11-3 5-7 5-6 8-5 3h-2l-1 7-8 3-9 13-5 11-3 11v27l-2 6v21l2 22-1 5-3-1-3-16-2-14v-20l2-7v-19l2-10 3-9 2-8 13-16 6-7 11-8 6-11 7-11 2-5v-15l-2-18-5-3-2-9-6-11-4-6-1-6-4 1-1 4-1 22-4 16v8l1 10-2 1-3-6v-16l4-16 1-8v-11l3-8-1-1v-6l1-7-4-12-12-25-5-13-5-21-5-10-6-7-9-7-4-10-5-8-4-10-11-9-8-7-7-4-4 2-3 5-3-1-5-12-14-9-10-9-10-10-9-11-5-6-6-12-11-9-6-7-12-23-13-29-6-8-10-19-6-7-3-7-5-6v-5l4 2 7 9 6 10 9 1h4l3-3-1-7-9-6-11-5 1-2 6 1 14 6 8 6 7 17 10 18 11 20 16 23 10 15 8 5 4 11 6 10 9 10 10 9 13 9 7 3 10-1h15l11 4 11 7 6 5 7 8 10 14 5 9 12 2 17 8 38 14 21 10 11 8 10 10 10 6 7 8 7 5h18l24 3h26l31-6 23-2 7-1 17-1 8-8 7-11 3-11 1-27 6-18 11-21 8-14 4-6 2-2h3v15l-5 19-2 5 13-3h7l7 3 5 6 16 2 6 2v2l-5 1-14-1h-3l2 3 9 4 3 1 11-5h3v-2l-4-1v-2l5 1 3 1 12-13 8-7 10-9 6-7 5-3 5-5h4l-2 9-8 16-7 10-9 10-12 12-7 6 8-3 7-6 7-8 8-6 13-7 6 1-4 3-14 8-10 9-4 6 11-4 15-8 6-2 15-1 11 1h22l2-2-16-8-16-3h-14l2-2 6-2 21 1 7-3 9-8 7-8 15-15 11-8 2-5 1-6 1-27 4-14 9-17 8-11 7-6 8-3h4l-2 6-12 23-8 15-2 7 10-8 10-9 8-8 6-8v-9l4-10 6-12 3-14 7-9 12-12 12-8 15-5 10-2-1 5-6 5-9 6-11 14-7 7-11 21-8 10-10 11-4 7 8-4 11-11 12-6 29-7 7-1h9l7 2-2 4-9 6-12 5-24 8-12 6-24 6-7 2-2 4-7 6-18 11-5 4-5 10-5 16-1 2 9-1 26-6 13-1 13 2 2 2-5 5-9 6-14 6-35 13-28 7-10 6 1 1 34 3 16 4 12 7 7 4h15l13-2 16-1 5-1 7 2 29 2 9-2 6-4 6-8 1-4-1-4h-12l-1-3 5-3-8-8h-13l-3-3 2-2 12-1 9 8 8 6 5 5 10-27 5-10 8-8 13-9 11-8 15-8 13-4 13-1-1 6-10 9-19 14-16 13-9 8-7 9-14 10-7 10-2 4 1 5 2 5 15-3 11-8 10-9 11-7 10-4 33-9 16 1 15-3h6l4 2-2 6-5 11-8 6-32 11-5 3-23 5-4-1 9-4 15-4 18-6 24-10 6-13-10 4-10 6-13 1-10 5-23 5-17 6-22 10 2 1h7l5-1h12l-4 3-6 2h-32l-8 3 8 4 7 1 17 1 7 2 7 3 21 3 16 3 11 4h11l3-9 12-9 7-8 8-6 24-14 9-7 19-10 14-9h4v-15l-3-11-7-12-13-17-17-17-8-10-2-4v-6l1-2 10 1 11 6 14 10 7 11 5 11 4 13 2 12v25l10-4 25-14 22-10 8-6 5-7 10-4 6-5v-7l-1-4 9-3 2 1 1-17 3-28-1-14-7-21-1-6v-12l2-6 4 1 6 10 8 9 7 14 1 5v11l-5 13-3 8-1 11-6 15-9 18 21-7 15-6 8-3 9-10 6-8 4-11 6-35 4-13v-14l-1-16 3-8z"/>
<path transform="translate(621,918)" d="m0 0 5 2 16 8 34 14 15 8 9 6 14 4 33 17 5 2-5 5-5 4-1 7 3 5 5 3 4 1h9l8-3 4-5h7l8 7 5 4 5 3 5 9 4 2 1-4 1 6-3-1 3 7 9 11 4 6 9 6 1 4 3-2 5 1 8 3 15 3 2 2-5 4-5 2 1 2h8l14-7 4 1 15 6-3 2-18 6-16 8-11 9-21 21-9 11-2 2h-5l-1 8-5 6-6 3-4-2v-2l-10 4h-12l-13-4-6-3-5-9-9-3-8-11-11-11-8-7-11-10-4-5 1-6 4-6 7-9 11 7 15 8 12 2 8 3 24 2 21 5 11 1 12-3 3-1-4-11-7-6-10-4-11-2-12-1-41-1-18-2-10-3-2-10-5-4-3-1h-32l-7-3-3-3-1-6 13-3 15-3 6-3v-4l-5-2-6-2h-15l-12 3-5 2-10-18-2-7v-5l8 1 12 6 4 4-2-5-8-5-17-6-5-10-3-10v-3l10 1v-2l-13-3-6-16-2-16z" fill="#FFA07A"/>
<path transform="translate(1088,621)" d="m0 0 16 4 8 5 9 9 9 4 15 4 8 5 12 12 8 7 7 9 24 11 11 7 2 3-7 9-12 25-7 10-6 6h-8l-21 5-21 2-9 3-7 2-9 1-40 1-14 2h-10l-7-2 2-4 4-3 8-2 23-2 13-5 15-5 17-5 4-3h2l2-6h-21l-17 4-21 9-27 14-12 4h-16l-11-4-4-1-5 4-14 3-21 7-28 1 4-4 11-9 15-14 7-13 11-13 11-12 3-3h13l13-3 22-1 37-13 13-7 6-5 3 1 8 10 6 8 1 4-9-1h-31l-21 3-20 5-14 1 3 1 18 2 4 1h13l16-2h22l11 2h9l7-1 11 14 9 8 6 2 1-2v-14l-2-7v-4l9-4 1-3-2-1-12-1-13-22-10-13-10-11-14-11-8-5 5 10 12 14 8 9 10 15 12 22 8 13 4 10v2l-4-1-5-6-8-7-9-13-7-14-13-13-6-9-6-14-2-7-1-8z" fill="#FFA07A"/>
<path transform="translate(390,936)" d="m0 0h20l3 2-2 4-7 5-11 21-9 11-14 9-11 7-10 2-12-1-15-4-17-4-11-1 3 5 4 3 2 8 4 6 17 12 5 8 10 7 8 14 13 11 4 5v2l9 2 8 2h9l8-3 12-10 4-2h10l10 3 11 6 10 8 3 4v4l-14-1-19-3h-41l-11-3h-2l3 5 16 10 10 7 8 4 8 2 3 7 19 8 15 10 13 2 12 5 12 7 13 10 7 7 11 16 1 4-2 6-5-1-11-6-13-11-13-9-12-8-5-4-7-8-5-4-12-6-3-5-19-10-5-6-4-2 4 8 8 7 11 8 11 9 9 9 6 10 3 9v10l-3 6-1 1h-6l-6-5-8-16-9-16-13-19-11-16-4-5 12 26 7 16 2 11-1 11-4 7h-3l-8-7-5-8-4-12-8-49-3-7-12-7-6-8-5-4-4-9-8-7-8-10-4-8-9-6-12-13-5-3 4 15 10 28 5 19 1 8v16l-6 28v13h-3l-7-7-5-10v-8l2-6v-7l-1-5v-22l2-17v-16l-5-19-1-6-7 4-1 1-7 1-7 11-6 2-13-1-11-4-2-5v-6l-9-2-3-5 1-8 6-5 7-2h7l8 3 5 3 14 2 7 6h5l1-1-1-8-5-10-12-14-10-11-7-14-1-9 3 1 10 19 9 10 2 1 44 3 12-2 8-4 9-8 11-21 8-7z"/>
<path transform="translate(1193,1198)" d="m0 0h14l29 3 3 2-4 4-9 4-24 6-19 4-21 7-7 1-32 1-13 2-3 2 10 5 20 6 25 7 12 5 11 8 13 1 2 2h8l6 4 8 2h18l18-4 15-6 6-1h14l18 3 25 6 7 3-1 4-20 6-12 2h-40l-4 1h-11l-24-5-20-8-1 1 11 12 9 6 21 10 13 11 10 12 15 23 3 7v12l-2 5-9-1-7-5-8-13-6-9-7-6-5-10-8-11-8-12-10-13-7-8h-6l-2-6-2-1 2 10 5 13 11 45 2 14v18l-4 13-6 7-5-2-3-5-2-35v-30l1-11v-18l-4-11-3-3v-9l-10-4 3 12 1 6v28l-4 27-5 18-7 14-8 9-4-2-3-3-1-3v-7l4-14 7-21 5-16 8-21 1-5v-12l-3-11-8-6-11-5-24-7-25-7-7-3 1 5 5 9 5 25 2 15 1 13v25l-2 25-1 5-5-5-5-12-5-8-2-10v-18l5-39v-13l-3-12-4-7-18-7-1-4h7l7 1 31-8 17-6 31-14 11-3z"/>
<path transform="translate(1446,872)" d="m0 0h14l11 3 2 4-8 7-20 9-14 4-36 1-10 4-8 2 20 3 32 1 2 3h18v2l-4 2-19-1 4 4 8 5h31l5 5-1 2-3 1h-16l-18-1-5-3-8-9h-2l6 12-1 3-4-5-6-11-12-4-17-2 15 15 11 6 8 8 10 15 17 26 6 12 2 7v19l-3 10-4-2-8-10-8-15-11-29-7-16-6-11-9-13-5-9-16-11-9-4-5-1h-10l-10 2 4-4 13-7 10-9 4-6 1-3-23 5-15 5-11 5-3-1 9-6 18-7 16-4h12v10l-4 6-6 5 1 1h8l9-5 13-8 20-9 19-7z"/>
<path transform="translate(1060,608)" d="m0 0 8 2 13 6 2 9 3 7 1 17 5 11 1 5-26 9-24 11-23 13-12 3-9-1v-3l7-7 5-3 6-12 4-7 7-8 4-17 7-8 9-11 4-8 4-1 3-6z" fill="#FFA07A"/>
<path transform="translate(811,1008)" d="m0 0h18l37 5h23l21-4h12l3 3-1 7-6 4-18 5-14 7-9 8-9 13-15-3-12-5-11-7-7-7-7-11-5-12z" fill="#FFA07A"/>
<path transform="translate(97,395)" d="m0 0 4 4 11 27 7 14 13 18 9 11 10 12 10 18 8 9 11 9 10 9 13 9-1 4-8 1-1 3-11-4-12-7-10-9-9-11-10-11-9-16-11-10-7-10-20-36-1-1-2-10-6-8-6-9v-2h12l5-3z" />
<path transform="translate(933,1077)" d="m0 0 1 2 9 2v3l-24 15-9 7-7 12-10 7-14 7-17 3-25 9-5 1h-15l-3-2 10-16 8-6 12-4 12-8 16-5 17-9 17-4 12-6 10-4z" fill="#FFA07A"/>
<path transform="translate(1331,786)" d="m0 0h2l-1 8-4 6-6 6-11 26 1 1 8-10 11-16 4-5 9-4 28-5h8l1 4-7 6-25 13-19 12-13 10-8 6h-5l-6 10-9 10-11 9-10 9-4 4h-2l2-5 13-27 11-15 2-4 1-9 8-16 6-9 8-7 10-4z"/>
<path transform="translate(603,574)" d="m0 0 4 2 6 5 7 3 1 11 4 3 10 1 10-3 4-2 2-10 8-2 9-3-1 7-8 16-4 13-24 7-53 15-6 1 2-5 7-9 12-23 9-24z" fill="#FFA07A"/>
<path transform="translate(873,1135)" d="m0 0h33l29 3 14 3-2 5-7 6-10 3-18 2h-57l-15-2-11-4-2-3 15-3 18-7z" fill="#FFA07A"/>
<path transform="translate(1208,423)" d="m0 0h9l10 4 5 6 2 6 13-1 9 9v2l-6-2-16 8-11 3-4 8-6 3-10 1-9-3-6-5-2-4v-11l4-4h4v-7l3-7 5-4z" fill="#FFA07A"/>
<path transform="translate(340,699)" d="m0 0 6 2 6 7v13l3 7 2 2 5-1 1-2-6-10 1-6 7 1 16 7 12 7 7 8 2 5-1 6-2 2-6-1-11-7-10-7-6-3v11l6 10 9 10 8 14 3 10v8l-4 3-5-1-5-5-10-18-10-15-2-6-2-15-7-16-2-12-5-6z"/>
<path transform="translate(701,1044)" d="m0 0h5l5 6v7l-5 8-5 5h-2l-1 6-11 28-8 13-9 10-9 5-13 6 3-16 6-16 8-14 10-14 11-12 7-6 12-6h3l-4-4-3-2z" fill="#FFA07A"/>
<path transform="translate(1327,461)" d="m0 0h23l44 7 6 5 19 7 5 4-2 4-11 4h-17l-18-4-37-11-21-8 1-4 4-3z" fill="#FFA07A"/>
<path transform="translate(1063,767)" d="m0 0h29l24 5 32 11 19 7-1 3-19 3h-16l-16-2-25-7-20-5-10-5-5-4-2-4z" fill="#FFA07A"/>
<path transform="translate(1358,841)" d="m0 0h19l16 5 14 4-1 3-7 4-9 2-14-1-4-1h-8l-30 13-33 17-8 6-2-1 3-9 9-11 7-8 8-5 20-9 14-7z"/>
<path transform="translate(1401,642)" d="m0 0h9l-1 7-5 7-14 11-17 14-17 13-9 7 10-3 11-4 5-1h9l4 2-4 5-12 5-12 1-6 2-13 1-7 2 6-7 7-8 10-14 12-16 9-10 10-7 12-6z"/>
<path transform="translate(664,1164)" d="m0 0h1l-1 10-5 18-8 19-8 15-9 12-4 3-15 5h-2l1-8 6-15 9-16 10-13 9-11 13-15z" fill="#FFA07A"/>
<path transform="translate(1239,527)" d="m0 0h32l16 3 14 7 3 3-1 5-3 2h-10l-19-2h-26l-12-3-36-2-8-2v-2h13l15-2 17-6z"/>
<path transform="translate(1373,883)" d="m0 0h4l-1 5-7 8-7 6-17 9-12 4-5 1-17 1-5 3-22 4-2-5 20-9 23-12 25-10 17-4z" fill="#FFA07A"/>
<path transform="translate(891,857)" d="m0 0 30 3 12 3 10 6 18 12 10 10 7 5 7 3v1h-15l-13-4-20-9-28-14-13-9-5-5z" fill="#FFA07A"/>
<path transform="translate(832,1201)" d="m0 0h2l5 6 6 5 6 14 5 20 2 18v15l-1 11-3 6-4-1-3-8-10-33-2-13 1-28-4-10z" fill="#FFA07A"/>
<path transform="translate(658,1215)" d="m0 0 3 3 6 18 5 23 2 15v21l-3 11-3 4-5-1-2-2-4-22-3-14v-28l3-24z" fill="#FFA07A"/>
<path transform="translate(626,965)" d="m0 0 3 3 4 13 8 14 5 13 10 19 9 12 5 5 7 6 1 5h-2l-6-8-13-10-4-9-7-12-6-9-2-4-2-9-3-3 3 12 9 17-2 4-7 5h-8l-5-4-6-31-1-12 2-10 3-5 3 4 3 12 4 4-5-18z" fill="#FFA07A"/>
<path transform="translate(824,344)" d="m0 0 3 1v9l-1 5v21l3 29v23l-2 11-4-1-4-18-7-19-2-12 1-18 4-18 5-10z"/>
<path transform="translate(215,541)" d="m0 0 5 2 8 7 27 18 13 8 4-1 8 7 8 14 1 3-9-2-27-12-8-7-6-5-7-1-8-6-2-1 1-2 3 1-6-7-11-8-1-4z" fill="#FFA07A"/>
<path transform="translate(915,654)" d="m0 0h2l-1 8-2 30-4 15-7 18-3 16-2 1-2-16-6-10-1-7 3-12 10-30 6-8z"/>
<path transform="translate(971,695)" d="m0 0h6l1 3-6 8-11 7-34 12-6 4-10 7-7 8h-2l2-9 10-13 11-12 8-7 5-4 3-1 20-1z"/>
<path transform="translate(1097,818)" d="m0 0 4 4 6 13 5 16 3 20v17l-3 19-4 11-3 5h-2v-7l2-10v-14l-4-23-6-28-1-9v-10z"/>
<path transform="translate(945,1215)" d="m0 0 15 1 18 3 10 1 3 3 1 3v10l-4 7-6 4-3 1h-8l-8-7-9-9-9-13z" fill="#FFA07A"/>
<path transform="translate(745,683)" d="m0 0 11 7 17 12 13 11 8 11 6 12 8 5 3 3v2l-16-8-14-6-11-9-8-7-8-11-10-19z"/>
<path transform="translate(1143,588)" d="m0 0 19 1 11 1-5 5-5 4-7 3-13 2-55 1-6-3-16-1-1-2 26-1 23-4 20-5z" fill="#FFA07A"/>
<path transform="translate(738,561)" d="m0 0 13 1 13 4 11 6v3l-2 1h-22l-18-1-11 2-16 8-9 4h-4l2-5 9-9 13-8 8-4z" fill="#FFA07A"/>
<path transform="translate(1298,942)" d="m0 0 16 2 20 7 17 5 16 3 29 12 1 2-2 1h-14l-19-6-21-4-23-8-15-8-5-4z" fill="#FFA07A"/>
<path transform="translate(753,735)" d="m0 0h7l6 3 6 7 2-1h16l-1 2-15 4-4 7-6 4-3 1h-13l-6-3-3-7v-9l3-5z"/>
<path transform="translate(314,631)" d="m0 0 6 1 7 6 6 9 7 5 9 16 2 5 1 8-3 7-3 1-6-4-13-26-11-18-2-6z"/>
<path transform="translate(953,645)" d="m0 0h11l8 4 4 6v8l-2 4-8 4h-11l-9-3-5-4-1-2v-7l4-6z"/>
<path transform="translate(1450,427)" d="m0 0 13 2 9 4 3 2-1 4-11 5-12 1-34-3-19-2-1-2 2-1 19-1 24-8z"/>
<path transform="translate(104,979)" d="m0 0 11 1 12 5 4 4v6l-4 5-7 3h-14l-9-3-5-5v-9l5-5z"/>
<path transform="translate(896,521)" d="m0 0h13l7 6 1 2v10l-5 6-4 2h-13l-8-4-4-7 1-9z"/>
<path transform="translate(795,560)" d="m0 0 11 2 9 5 16 13 7 4 9 3 10 8 11 10 6 4-3 1-14-5-16-8-18-12-14-11-14-12z" fill="#FFA07A"/>
<path transform="translate(218,534)" d="m0 0h13l11 4 8 6 7 6 13 17 2 5-6-2-17-9-15-10-10-8-5-5z" fill="#FFA07A"/>
<path transform="translate(445,784)" d="m0 0h5l-2 4-3 2-1 4-1 19-4 20-5 8-5 1-4-4-1-5 1-13 7-15 7-16z"/>
<path transform="translate(1083,1050)" d="m0 0 19 4 3 4v4l6 1 1 2-7 3-5 4-4 1h-13l-8-4-2-4 1-7 4-4z" fill="	#FFA07A"/>
<path transform="translate(1249,903)" d="m0 0h32l23 1-5 5-22 10h-11l-8-4-10-10z" fill="#FFA07A"/>
<path transform="translate(1017,792)" d="m0 0 7 1 6 6v9l-5 6-2 1h-10l-5-3-3-3-1-3v-8l9-5z" fill="#FFA07A"/>
<path transform="translate(1430,939)" d="m0 0 7 4 17 5 14 7 4 8 1 7-10-1-9-5-7-8v-2l-4-2-9-4-4-7z"/>
<path transform="translate(1193,446)" d="m0 0 10 3 15 5 1 3-3 5-4 3-4 1h-8l-8-3-3-3 1-10z" fill="#FFA07A"/>
<path transform="translate(808,752)" d="m0 0h12l4 4 2 4-1 5-5 4-4 1h-7l-7-3-2-2v-6l4-5z" fill="#FFA07A"/>
<path transform="translate(710,587)" d="m0 0 9 1 2 2-12 6-18 6-18 4h-5l2-5 6-4 25-7z" fill="#FFA07A"/>
<path transform="translate(648,1084)" d="m0 0 7 1v16l-17 3h-7l-5-4-2-6 16-2 5-3z" fill="#FFA07A"/>
<path transform="translate(774,559)" d="m0 0 11 1 10 5 6 7v2l-13 2h-5l-13-10-5-3 1-2z" fill="#FFA07A"/>
<path transform="translate(872,1289)" d="m0 0h12l6 3 2 6-2 4-9 3h-8l-6-3v-10z" fill="#FFA07A"/>
<path transform="translate(618,563)" d="m0 0h10l5 3 1 7-5 5-3 1h-10l-4-2-2-7 3-5z" fill="#FFA07A"/>
<path transform="translate(630,1034)" d="m0 0h15l10 3 5 5-4 9-9-3-12-6-5-5z" fill="#FFA07A"/>
<path transform="translate(155,975)" d="m0 0h27l3 2-8 5-12 3-8 1h-12l9-9z" fill="#FFA07A"/>
<path transform="translate(253,1008)" d="m0 0h12l5 3-2 4-12 6h-7l-4-3 1-6 4-3z" fill="#FFA07A"/>
<path transform="translate(687,1044)" d="m0 0 9 1 4 3-1 5-12 7-5-5-2-5 1-4z" fill="#FFA07A"/>
<path transform="translate(857,991)" d="m0 0h7l1 1-1 7-8 4h-9l-5-2v-8l7 1z" fill="#FFA07A"/>
<path transform="translate(698,1088)" d="m0 0 5 2 25 25 11 14v3l-8-8-7-10-12-9-10-9-4-6z" fill="#FFA07A"/>
<path transform="translate(1474,889)" d="m0 0 2 1-5 4-12 7-24 8h-3l1-3 14-7 23-8z"/>
<path transform="translate(1304,458)" d="m0 0h18l-3 3-11 4-14 1-8-1 4-3z" fill="#FFA07A"/>
<path transform="translate(662,1047)" d="m0 0 7 2 5 6 4 10-1 3-8-7-4-4-4-2v-7z" fill="#FFA07A"/>
<path transform="translate(1022,779)" d="m0 0 4 2 4 5 2 8-10-2h-12l4-4 6-3z" fill="#FFA07A"/>
<path transform="translate(1237,442)" d="m0 0h10l-5 6-9 5h-9l4-6 6-4z" fill="#FFA07A"/>
<path transform="translate(811,1148)" d="m0 0 7 1 17 8v1h-11l-17-6-1-2z" fill="#FFA07A"/>
<path transform="translate(743,826)" d="m0 0h6l3 2v6l-1 1h-14l1-6z" fill="#FFA07A"/>
<path transform="translate(646,827)" d="m0 0h11l16 4 18 5 6 1h11l13-1v2l-5 1h-20l-42-10-8-1z" fill="#FFA07A"/>
<path transform="translate(1053,555)" d="m0 0m-4 1h4v2l-12 5-7 2-17 4-4-1 9-4 15-4z"/>
<path transform="translate(277,1012)" d="m0 0 7 1 10 8v2l-7-1-9-5-3-4z" fill="#FFA07A"/>
<path transform="translate(1472,908)" d="m0 0h4l-2 4-14 3h-9l3-3z"/>
<path transform="translate(536,1105)" d="m0 0h9l2 1-1 4-3 2h-6l-2-1v-5z" fill="#FFA07A"/>
<path transform="translate(837,1317)" d="m0 0h8l3 2v3l-3 1h-7l-3-1 1-4z" fill="#FFA07A"/>
<path transform="translate(1138,878)" d="m0 0 7 1-1 5h-9l-3-3 2-2z" fill="#FFA07A"/>
<path transform="translate(1172,555)" d="m0 0h10l2 2-4 3h-8l-1-4z" fill="#FFA07A"/>
<path transform="translate(961,653)" d="m0 0h7l2 1-1 4-1 1h-6l-2-1z" fill="#FFA07A"/>
<path transform="translate(1235,936)" d="m0 0h8l3 1v4h-8l-4-2z" fill="#FFA07A"/>
<path transform="translate(271,1027)" d="m0 0h9l1 2-2 3h-7l-3-3z" fill="#FFA07A"/>
<path transform="translate(726,579)" d="m0 0h6l-2 4-4 2h-7l1-3z" fill="#FFA07A"/>
<path transform="translate(1068,1221)" d="m0 0 6 1v4l-3 3-3-3-4-2 1-2z" fill="#FFA07A"/>
<path transform="translate(778,1170)" d="m0 0 5 2 16 8 3 2-7-1-14-7z" fill="#FFA07A"/>
<path transform="translate(909 1e3)" d="m0 0h14l-1 2-23 2 4-3z" fill="#FFA07A"/>
<path transform="translate(953,562)" d="m0 0h2l1 3-3 5-4 3-3-1 6-8z" fill="#FFA07A"/>
<path transform="translate(900,529)" d="m0 0 10 1-2 4h-6l-3-2z" fill="#FFA07A"/>
<path transform="translate(132,968)" d="m0 0h12l-2 3-9 1-2-3z" fill="#FFA07A"/>
<path transform="translate(987,653)" d="m0 0h6v3l-3 1h-11l4-3z"/>
<path transform="translate(749,579)" d="m0 0 5 1-2 2-11 3-3-1 6-4z" fill="#FFA07A"/>
<path transform="translate(832,723)" d="m0 0 5 1-2 5h-6l1-5z" fill="#FFA07A"/>
<path transform="translate(992,783)" d="m0 0h7l2 1v2l-4 2-5-1z" fill="#FFA07A"/>
<path transform="translate(469,729)" d="m0 0 4 1v7l-4-1-1-1v-5z"/>
<path transform="translate(845,750)" d="m0 0 7 1-2 4h-5l-2-3z" fill="#FFA07A"/>
<path transform="translate(568,993)" d="m0 0h8l-1 3-6 1z" fill="#FFA07A"/>
<path transform="translate(759,743)" d="m0 0 4 1 2 3-2 2h-4z" fill="#FFA07A"/>
<path transform="translate(794,970)" d="m0 0 4 2-2 4h-4l1-5z" fill="#FFA07A"/>
</svg>
