<svg width="36" height="36" viewBox="0 0 36 36" fill="none" xmlns="http://www.w3.org/2000/svg">
<path d="M35.25 33V33.75C35.25 34.5783 34.5784 35.25 33.75 35.25H2.25C1.42162 35.25 0.75 34.5783 0.75 33.75V33C0.75 32.1715 1.42162 31.5 2.25 31.5H33.75C34.5784 31.5 35.25 32.1715 35.25 33ZM7.5 12.75V5.24996C7.5 4.42149 6.82837 3.74996 6 3.74996C5.17163 3.74996 4.5 4.42149 4.5 5.24996V12.75C4.5 13.5783 5.17163 14.25 6 14.25C6.82837 14.25 7.5 13.5783 7.5 12.75ZM31.5 9.74996V5.24996C31.5 4.42149 30.8284 3.74996 30 3.74996C29.1716 3.74996 28.5 4.42149 28.5 5.24996V9.74996C28.5 10.5783 27.8284 11.25 27 11.25C26.1716 11.25 25.5 10.5783 25.5 9.74996V5.24996C25.5 4.42149 24.8284 3.74996 24 3.74996C23.1716 3.74996 22.5 4.42149 22.5 5.24996V9.74996C22.5 12.2353 24.5147 14.25 27 14.25C29.4853 14.25 31.5 12.2353 31.5 9.74996ZM4.5 24.75C5.74266 24.75 6.75 23.7426 6.75 22.5V20.25C6.75 19.0073 7.75734 18 9 18C10.2427 18 11.25 19.0073 11.25 20.25V25.5C11.25 26.7426 12.2573 27.75 13.5 27.75C14.7427 27.75 15.75 26.7426 15.75 25.5V21.75C15.75 20.5073 16.7573 19.5 18 19.5C19.2427 19.5 20.25 20.5073 20.25 21.75C20.25 22.9926 21.2573 24 22.5 24C23.7427 24 24.75 22.9926 24.75 21.75V20.25C24.75 19.0073 25.7573 18 27 18C28.2427 18 29.25 19.0073 29.25 20.25V21C29.25 22.2426 30.2573 23.25 31.5 23.25C32.7427 23.25 33.75 22.2426 33.75 21V17.25C33.75 15.5931 32.4068 14.25 30.75 14.25H27H15.75V9.74996C15.75 9.69427 15.7298 9.64524 15.7184 9.59302C15.9082 9.50705 16.0876 9.39024 16.2433 9.23292L19.2902 6.15277C20.4011 5.02974 20.5923 3.22496 19.629 1.97105C18.4651 0.455862 16.2982 0.354518 15 1.66683C13.7018 0.354518 11.5349 0.455862 10.3711 1.97105C9.40781 3.22505 9.59906 5.02974 10.7099 6.15277L13.7568 9.23292C13.9124 9.39024 14.0919 9.50705 14.2817 9.59302C14.2702 9.64524 14.2501 9.69427 14.2501 9.74996V14.25H6.00009H5.25009C3.59325 14.25 2.25009 15.5931 2.25009 17.25V22.5C2.25 23.7426 3.25734 24.75 4.5 24.75ZM32.5318 24.6073C32.314 24.6685 32.0879 24.7113 31.8559 24.7333C31.6573 24.752 31.5 24.9064 31.5 25.1059V26.1425C29.0953 25.7857 28.0778 24.5969 26.3084 23.8591C25.9952 23.7285 25.632 23.81 25.4212 24.076C24.7361 24.9401 23.6862 25.5 22.5 25.5C21.4445 25.5 20.495 25.0569 19.8145 24.3511C19.5817 24.1095 19.2169 24.0589 18.9206 24.2165C18.464 24.4595 18.0427 24.7236 17.6068 24.979C17.3861 25.1084 17.2542 25.3399 17.2331 25.5949C17.0611 27.6737 15.5924 29.0415 13.9254 29.2262C11.8649 29.4547 10.1018 28 9.80681 26.0679C9.76688 25.8065 9.57431 25.5987 9.33516 25.4859C8.93259 25.2961 8.56397 25.0858 8.202 24.8716C7.89291 24.6887 7.50525 24.7589 7.26337 25.0243C6.57834 25.776 5.59491 26.25 4.5 26.25C4.28447 26.25 4.07353 26.231 3.86822 26.1953C3.41306 26.1159 3 26.469 3 26.931V28.5C3 29.3283 3.67162 30 4.5 30H31.5C32.3284 30 33 29.3283 33 28.5V27.75V26.25V24.9662C33 24.7206 32.7683 24.5408 32.5318 24.6073Z" fill="#FB84EE"/>
</svg>
