<svg width="48" height="48" viewBox="0 0 48 48" fill="none" xmlns="http://www.w3.org/2000/svg">
<g clip-path="url(#clip0_1_251)">
<path d="M47.996 42.031C47.9562 41.608 47.6306 41.2681 47.2098 41.21L39.7878 40.1865L35.7915 28.3185C37.419 27.5566 38.7333 26.2782 39.544 24.6444C40.4918 22.7343 40.6392 20.5692 39.9585 18.5484C39.9448 18.5074 39.9281 18.4674 39.9086 18.4287L35.7221 10.1159C35.5173 9.70908 35.0445 9.51455 34.6125 9.66014L23.9999 13.2338L13.3875 9.66023C12.9559 9.51492 12.4827 9.70908 12.2778 10.1159L11.0963 12.462C10.869 12.9136 11.0506 13.4639 11.5022 13.6913C11.9535 13.9185 12.5041 13.737 12.7313 13.2854L13.5557 11.6486L22.9553 14.8136L21.4176 23.1187C20.5365 25.651 18.1519 27.2492 15.6024 27.249C14.9531 27.2489 14.2924 27.1451 13.6439 26.9268C12.0863 26.4023 10.8263 25.3026 10.0959 23.8307C9.36542 22.3585 9.25198 20.6901 9.77642 19.1326C9.93776 18.6534 9.68023 18.1343 9.20108 17.973C8.72192 17.8119 8.20274 18.0693 8.04149 18.5484C7.36096 20.5693 7.50815 22.7342 8.45595 24.6444C9.26661 26.2782 10.5809 27.5565 12.2085 28.3185L8.21211 40.1864L0.790327 41.2099C0.369485 41.268 0.0438928 41.6079 0.00404919 42.0309C-0.0357007 42.4539 0.220611 42.8486 0.623172 42.9843L14.2989 47.5892C15.1928 47.8905 15.904 46.7418 15.239 46.0753L9.94779 40.7713L13.9439 28.904C14.4971 29.023 15.0565 29.0833 15.6145 29.0833C16.8287 29.0833 18.036 28.8027 19.1556 28.2471C21.0658 27.2993 22.4925 25.6643 23.173 23.6435C23.1867 23.6025 23.1977 23.5605 23.2057 23.518L24.0001 19.2277L24.7944 23.518C24.8021 23.5606 24.8132 23.6025 24.8271 23.6435C25.9484 26.9736 29.0652 29.0797 32.3993 29.0797C32.9481 29.0797 33.5031 29.0214 34.056 28.9032L38.0522 40.7712L32.7609 46.075C32.0961 46.7414 32.807 47.8904 33.701 47.5889L47.3769 42.984C47.7794 42.8488 48.0357 42.4541 47.996 42.031ZM11.1932 44.6117L4.89731 42.4918L8.57267 41.9849L11.1932 44.6117ZM26.5823 23.1188L25.0446 14.8137L34.4442 11.6487L38.2433 19.1924C38.745 20.7328 38.6252 22.3775 37.9041 23.8309C37.1736 25.303 35.9135 26.4027 34.3562 26.9271C31.1607 28.0025 27.6877 26.2959 26.5823 23.1188ZM36.8069 44.6117L39.4275 41.985L43.1028 42.4919L36.8069 44.6117Z" fill="#FB84EE"/>
<path d="M36.2984 19.4032C36.2847 19.3623 36.268 19.3222 36.2485 19.2836L34.3731 15.5598C34.1458 15.1083 33.5956 14.9265 33.144 15.1539C32.6924 15.3813 32.5108 15.9316 32.7381 16.3832L34.5818 20.0441C34.7524 20.5976 34.7051 21.1854 34.4467 21.7062C34.1796 22.2448 33.7186 22.647 33.1488 22.8388C32.6697 23.0001 32.4121 23.5193 32.5733 23.9984C32.7021 24.3806 33.0586 24.6219 33.4407 24.6219C33.5376 24.6219 33.6361 24.6064 33.733 24.5737C34.7661 24.2259 35.6021 23.4964 36.0866 22.5199C36.5712 21.5434 36.6465 20.4365 36.2984 19.4032Z" fill="#FB84EE"/>
<path d="M14.8515 22.839C14.2817 22.6471 13.8208 22.2449 13.5535 21.7064C13.2952 21.1857 13.2478 20.5979 13.4185 20.0444L15.2621 16.3832C15.4895 15.9317 15.3079 15.3813 14.8563 15.154C14.4051 14.9265 13.8545 15.1082 13.6271 15.5598L11.7518 19.2837C11.7323 19.3222 11.7155 19.3622 11.7019 19.4033C11.3538 20.4365 11.4293 21.5434 11.9138 22.52C12.3983 23.4965 13.2342 24.226 14.2674 24.574C14.3643 24.6067 14.4627 24.6222 14.5597 24.6222C14.9418 24.6221 15.2984 24.3807 15.427 23.9986C15.5882 23.5196 15.3306 23.0004 14.8515 22.839Z" fill="#FB84EE"/>
<path d="M25.5026 5.39457C25.4841 3.96648 25.351 2.52864 25.1072 1.1208C25.021 0.622713 24.5473 0.288964 24.0491 0.37512C23.551 0.46137 23.2171 0.935087 23.3035 1.43327C23.5307 2.74605 23.6548 4.08686 23.6722 5.41848C23.6913 6.89156 23.5805 8.37665 23.3425 9.83249C23.2609 10.3314 23.5993 10.802 24.0982 10.8835C24.148 10.8917 24.1977 10.8956 24.247 10.8956C24.6874 10.8956 25.0759 10.5767 25.1493 10.1278C25.4046 8.56678 25.5234 6.97425 25.5026 5.39457Z" fill="#FB84EE"/>
<path d="M21.0677 6.85915C20.1563 5.43678 18.8482 4.82704 18.1496 4.59013C17.6714 4.42804 17.1513 4.68435 16.9888 5.16313C16.8265 5.64172 17.083 6.16147 17.5618 6.32384C18.0336 6.48387 18.916 6.89431 19.5264 7.84681C19.9863 8.56446 20.0971 9.28671 20.109 9.76633C20.1216 10.264 20.5287 10.6588 21.0236 10.6588C21.0313 10.6588 21.0393 10.6587 21.047 10.6585C21.5524 10.6459 21.9518 10.226 21.9393 9.72058C21.9214 9.00799 21.7556 7.93287 21.0677 6.85915Z" fill="#FB84EE"/>
<path d="M31.7548 5.68029C31.1692 5.66566 29.6664 5.75276 28.3492 6.89172C27.2079 7.87844 26.8335 9.10149 26.7118 9.74274C26.6177 10.2395 26.9439 10.7185 27.4405 10.8129C27.4983 10.8238 27.5556 10.8291 27.6123 10.8291C28.0432 10.8291 28.4271 10.5233 28.5104 10.0843C28.5877 9.67702 28.8251 8.90049 29.5466 8.27659C30.3799 7.55612 31.3369 7.50016 31.7073 7.51047C31.7154 7.51056 31.7235 7.51075 31.7315 7.51075C32.2261 7.51075 32.6332 7.11644 32.6461 6.6191C32.6592 6.1136 32.2602 5.69341 31.7548 5.68029Z" fill="#FB84EE"/>
<path d="M28.3431 1.21606C27.8044 1.21606 27.3661 1.65434 27.3661 2.19303C27.3661 2.73171 27.8044 3.16999 28.3431 3.16999C28.8817 3.16999 29.32 2.73171 29.32 2.19303C29.32 1.65434 28.8818 1.21606 28.3431 1.21606Z" fill="#FB84EE"/>
<path d="M20.7794 1.80762C20.2407 1.80762 19.8024 2.2459 19.8024 2.78458C19.8024 3.32327 20.2407 3.76155 20.7794 3.76155C21.3181 3.76155 21.7564 3.32327 21.7564 2.78458C21.7564 2.2459 21.3181 1.80762 20.7794 1.80762Z" fill="#FB84EE"/>
</g>
<defs>
<clipPath id="clip0_1_251">
<rect width="48" height="48" fill="white"/>
</clipPath>
</defs>
</svg>
