<svg width="42" height="30" viewBox="0 0 42 30" fill="none" xmlns="http://www.w3.org/2000/svg">
<path d="M30.75 28.5C30.75 28.7625 30.795 29.0175 30.885 29.25H6H2.25C1.00931 29.25 0 28.2407 0 27V9C0 7.75931 1.00931 6.75 2.25 6.75H2.66513C1.84022 6.02297 1.31081 5.07984 1.56187 4.125C2.00578 2.4375 3.75 2.01562 3.75 0.75C5.13009 1.47553 6 2.75166 6 4.125C6 5.106 5.55019 6.03347 4.79353 6.75H6C7.24069 6.75 8.25 7.75931 8.25 9V18.3527C10.8943 14.0899 15.612 11.25 21 11.25C23.73 11.25 26.2875 11.9775 28.5 13.2525V15.75C28.5 18.7875 30.2775 21.45 33 22.62V24.75H6.07566C6.18384 23.6593 6.42112 22.6087 6.75 21.5995V11.25H6.375C5.7525 11.25 5.25 11.7525 5.25 12.375V13.875C5.25 14.4975 4.7475 15 4.125 15C3.5025 15 3 14.4975 3 13.875V11.625C3 11.0025 2.4975 10.5 1.875 10.5H1.5V27C1.5 27.4138 1.83619 27.75 2.25 27.75H4.5C4.5 26.925 5.175 26.25 6 26.25H31.155C30.6836 27.068 30.75 27.6974 30.75 28.5ZM42 9C42 11.7888 42 13.3229 42 15.7573C42 18.4816 40.167 20.8564 37.5 21.5488V26.25H38.25C39.075 26.25 39.75 26.925 39.75 27.75V28.5C39.75 28.9125 39.4125 29.25 39 29.25H33C32.5875 29.25 32.25 28.9125 32.25 28.5V27.75C32.25 26.925 32.925 26.25 33.75 26.25H34.5V21.5484C31.6774 20.8143 30 18.3754 30 15.75C30 14.2626 30 19.2353 30 9C30 7.75931 31.0093 6.75 32.25 6.75H39.75C40.9907 6.75 42 7.75931 42 9ZM31.5 9V13.0119C33.1598 11.94 35.3183 12.0936 36.4622 12.7829C38.1881 13.8269 39.1316 15.2157 40.5 14.902V9C40.5 8.58619 40.1638 8.25 39.75 8.25H32.25C31.8362 8.25 31.5 8.58619 31.5 9ZM20.463 11.0236C20.7574 11.3255 21.2425 11.3255 21.5369 11.0236L23.4074 9.10547C24.0652 8.43084 24.1937 7.34784 23.6047 6.61237C22.9348 5.77594 21.7277 5.73084 20.9999 6.47719C20.2721 5.73094 19.0649 5.77603 18.3952 6.61237C17.8061 7.34784 17.9346 8.43094 18.5924 9.10547L20.463 11.0236Z" fill="#FB84EE"/>
</svg>
