<svg width="48" height="44" viewBox="0 0 48 44" fill="none" xmlns="http://www.w3.org/2000/svg">
<path d="M10.4 16.851C10.4 17.444 10.9384 17.9266 11.6 17.9266C12.2616 17.9266 12.8 17.444 12.8 16.851C12.8 16.258 12.2616 15.7754 11.6 15.7754C10.9384 15.7754 10.4 16.258 10.4 16.851ZM12 16.851C12 17.0489 11.82 17.2095 11.6 17.2095C11.3799 17.2095 11.1999 17.049 11.1999 16.851C11.1999 16.6531 11.3799 16.4924 11.6 16.4924C11.82 16.4924 12 16.6531 12 16.851Z" fill="#FB84EE"/>
<path d="M39.2448 7.72849C39.4583 7.94075 39.7952 8.01671 40.0943 7.92495L41.1295 7.60731L41.8455 8.39897C42.0006 8.57106 42.2302 8.66501 42.467 8.66501C42.5558 8.66501 42.647 8.6514 42.7342 8.62341C43.0534 8.52232 43.267 8.25124 43.267 7.94797V6.95692L44.4246 6.43845C44.6959 6.31652 44.867 6.06846 44.867 5.7967C44.867 5.52495 44.6959 5.2768 44.4246 5.15496L43.267 4.63649V3.64551C43.267 3.33502 43.0438 3.05965 42.7142 2.96361C42.3861 2.86899 42.0238 2.97218 41.8198 3.22393L41.155 4.04424L40.1054 3.70719C39.8062 3.61115 39.4678 3.6835 39.2502 3.89433C39.0318 4.10441 38.975 4.41062 39.1046 4.67304L39.6734 5.82393L39.1062 6.95112C38.976 7.2122 39.0296 7.51774 39.2448 7.72849ZM41.3119 5.60671C41.4944 5.63612 41.6815 5.60604 41.8415 5.52638C41.9127 5.60595 42.0032 5.67335 42.1096 5.72141L42.2783 5.7967L42.1096 5.87199C41.9735 5.93367 41.8616 6.02686 41.7847 6.13871C41.6672 6.08064 41.5343 6.05048 41.4 6.05048C41.3696 6.05048 41.3391 6.05123 41.308 6.05476C41.3624 5.91006 41.364 5.75225 41.3119 5.60671Z" fill="#FB84EE"/>
<path d="M23.2 4.16969V11.473C23.2 11.8688 23.5576 12.19 24 12.19C24.4424 12.19 24.7999 11.8688 24.7999 11.473V4.17045C25.7288 3.87289 26.4 3.08477 26.4 2.15119C26.4 0.965178 25.3232 0 24 0C22.6768 0 21.6 0.965178 21.6 2.15119C21.6 3.08477 22.2712 3.87289 23.2 4.16969ZM24 1.43415C24.4415 1.43415 24.7999 1.75608 24.7999 2.15119C24.7999 2.5463 24.4415 2.86822 24 2.86822C23.5584 2.86822 23.2 2.5463 23.2 2.15119C23.2 1.75608 23.5584 1.43415 24 1.43415Z" fill="#FB84EE"/>
<path d="M35.2 16.851C35.2 17.444 35.7384 17.9266 36.4 17.9266C37.0616 17.9266 37.6 17.444 37.6 16.851C37.6 16.258 37.0616 15.7754 36.4 15.7754C35.7384 15.7754 35.2 16.258 35.2 16.851ZM36.7999 16.851C36.7999 17.0489 36.6199 17.2095 36.3999 17.2095C36.1799 17.2095 36 17.049 36 16.851C36 16.6531 36.18 16.4924 36.4 16.4924C36.62 16.4924 36.7999 16.6531 36.7999 16.851Z" fill="#FB84EE"/>
<path d="M29.2 11.473C29.8616 11.473 30.4 10.9904 30.4 10.3974C30.4 9.80437 29.8616 9.32178 29.2 9.32178C28.5384 9.32178 28 9.80437 28 10.3974C28 10.9904 28.5384 11.473 29.2 11.473ZM29.2 10.0389C29.42 10.0389 29.6 10.1995 29.6 10.3975C29.6 10.5954 29.42 10.756 29.2 10.756C28.98 10.756 28.8 10.5954 28.8 10.3975C28.8 10.1995 28.98 10.0389 29.2 10.0389Z" fill="#FB84EE"/>
<path d="M29.8344 16.2823C29.9904 16.4221 30.1953 16.4924 30.4 16.4924C30.6049 16.4924 30.8096 16.4221 30.9656 16.2823L38.1656 9.82872C38.4785 9.5483 38.4785 9.09513 38.1656 8.8148C37.8529 8.53439 37.3472 8.53439 37.0344 8.8148L29.8344 15.2684C29.5216 15.5488 29.5216 16.002 29.8344 16.2823Z" fill="#FB84EE"/>
<path d="M18.8 11.473C19.4616 11.473 20 10.9904 20 10.3974C20 9.80437 19.4616 9.32178 18.8 9.32178C18.1384 9.32178 17.6 9.80437 17.6 10.3974C17.6 10.9904 18.1384 11.473 18.8 11.473ZM18.8 10.0389C19.02 10.0389 19.2 10.1995 19.2 10.3975C19.2 10.5954 19.02 10.7559 18.8 10.7559C18.5799 10.7559 18.3999 10.5953 18.3999 10.3974C18.3999 10.1994 18.58 10.0389 18.8 10.0389Z" fill="#FB84EE"/>
<path d="M17.0344 16.2823C17.1904 16.4221 17.3952 16.4924 17.6 16.4924C17.8048 16.4924 18.0096 16.4221 18.1656 16.283C18.4784 16.0025 18.4784 15.5487 18.1656 15.2683L10.9824 8.82624C10.6695 8.54582 10.1632 8.54658 9.85033 8.82624C9.53833 9.10589 9.53833 9.5605 9.85033 9.84015L17.0344 16.2823Z" fill="#FB84EE"/>
<path d="M31.7656 27.4585C31.4529 27.1781 30.9472 27.1781 30.6344 27.4585C30.3216 27.7388 30.3216 28.1921 30.6344 28.4724L37.0344 34.2089C37.1904 34.3487 37.3953 34.419 37.6 34.419C37.8049 34.419 38.0096 34.3487 38.1656 34.2089C38.4785 33.9286 38.4785 33.4753 38.1656 33.195L31.7656 27.4585Z" fill="#FB84EE"/>
<path d="M29.2 31.5508C28.5384 31.5508 28 32.0334 28 32.6264C28 33.2194 28.5384 33.702 29.2 33.702C29.8616 33.702 30.4 33.2194 30.4 32.6264C30.4 32.0334 29.8616 31.5508 29.2 31.5508ZM29.2 32.9848C28.98 32.9848 28.8 32.8243 28.8 32.6263C28.8 32.4284 28.98 32.2677 29.2 32.2677C29.42 32.2677 29.6 32.4283 29.6 32.6263C29.5999 32.8243 29.4199 32.9848 29.2 32.9848Z" fill="#FB84EE"/>
<path d="M37.6 26.1728C37.6 25.5798 37.0616 25.0972 36.4 25.0972C35.7384 25.0972 35.2 25.5798 35.2 26.1728C35.2 26.7658 35.7384 27.2484 36.4 27.2484C37.0616 27.2484 37.6 26.7658 37.6 26.1728ZM36 26.1728C36 25.9749 36.18 25.8142 36.4 25.8142C36.62 25.8142 36.8 25.9748 36.8 26.1728C36.8 26.3707 36.62 26.5313 36.4 26.5313C36.18 26.5313 36 26.3707 36 26.1728Z" fill="#FB84EE"/>
<path d="M3.52962 5.59956L4.44481 6.19542L4.06878 7.13547C3.96078 7.4058 4.04318 7.70696 4.27756 7.90275C4.42793 8.02821 4.62312 8.09418 4.82159 8.09418C4.93118 8.09418 5.04237 8.07409 5.14643 8.0325L6.43043 7.52268L7.688 8.03107C7.98003 8.14938 8.31922 8.09989 8.55518 7.90771C8.79115 7.71486 8.87759 7.4158 8.77437 7.14547L8.42 6.2176L9.30322 5.57653C9.56722 5.38578 9.66725 5.06596 9.55362 4.77983C9.44084 4.49371 9.13925 4.30229 8.80006 4.30229H7.69447L7.11603 3.26468C6.84406 2.77847 5.95606 2.77847 5.684 3.26468L5.10565 4.30237H4.00006C3.6529 4.30237 3.34643 4.50245 3.23928 4.7979C3.13203 5.09327 3.24959 5.41738 3.52962 5.59956ZM6.31606 5.33998L6.40006 5.18864L6.48406 5.33998C6.55203 5.46258 6.65609 5.56157 6.78162 5.63039C6.7024 5.76022 6.66884 5.90929 6.68806 6.05777C6.60565 6.03341 6.51846 6.02047 6.43287 6.02047C6.35046 6.02047 6.26806 6.03198 6.18809 6.05492C6.22006 5.89072 6.1865 5.72291 6.09847 5.5809C6.18725 5.51636 6.26243 5.43536 6.31606 5.33998Z" fill="#FB84EE"/>
<path d="M45.6 19.3607C44.5584 19.3607 43.6792 19.9616 43.348 20.7949H32.8C32.3576 20.7949 32.0001 21.1161 32.0001 21.5119C32.0001 21.9077 32.3576 22.2289 32.8 22.2289H43.348C43.6792 23.0622 44.5584 23.6631 45.6 23.6631C46.9232 23.6631 48 22.6979 48 21.5119C48 20.3259 46.9232 19.3607 45.6 19.3607ZM45.6 22.2289C45.1584 22.2289 44.8 21.907 44.8 21.5119C44.8 21.1168 45.1584 20.7949 45.6 20.7949C46.0416 20.7949 46.4 21.1168 46.4 21.5119C46.4 21.907 46.0416 22.2289 45.6 22.2289Z" fill="#FB84EE"/>
<path d="M44.4704 37.5447L43.5552 36.9488L43.9312 36.008C44.0392 35.7377 43.9568 35.4358 43.7225 35.2407C43.4881 35.0457 43.1456 34.9941 42.8537 35.111L41.5697 35.6208L40.3121 35.1124C40.0217 34.9963 39.6809 35.0436 39.4449 35.2358C39.209 35.4287 39.1225 35.7277 39.2257 35.998L39.5801 36.9266L38.6962 37.5677C38.433 37.7591 38.333 38.0783 38.4466 38.3644C38.5594 38.6505 38.861 38.8419 39.2002 38.8419H40.3057L40.8842 39.8796C41.0202 40.1227 41.297 40.2761 41.6001 40.2761C41.9033 40.2761 42.1802 40.1227 42.3161 39.8796L42.8946 38.8419H44.0001C44.3473 38.8419 44.6538 38.6419 44.7609 38.3464C44.868 38.0509 44.7504 37.7275 44.4704 37.5447ZM41.684 37.8042L41.6 37.9555L41.516 37.8042C41.448 37.6816 41.3439 37.5827 41.2176 37.5131C41.2975 37.384 41.3312 37.2342 41.312 37.0857C41.4743 37.1344 41.6496 37.1352 41.8119 37.0893C41.78 37.2535 41.8135 37.4213 41.9023 37.5633C41.8128 37.6271 41.7376 37.7089 41.684 37.8042Z" fill="#FB84EE"/>
<path d="M28.9064 26.1513C29.0776 25.9527 29.2472 25.5977 29.0832 25.0378C28.9168 24.4699 28.4456 22.7675 28.2192 21.9472L30.6848 20.2319C31.1304 19.9215 31.3256 19.3636 31.1584 18.8775C31.0008 18.4171 30.5616 18.1109 30.0288 18.0801C29.6577 18.0529 27.7 17.8965 26.7728 17.8227L25.2664 14.4654C25.0344 13.9469 24.5537 13.6243 24.0112 13.6243C23.4384 13.6243 22.9504 13.9821 22.7824 14.4933C22.6425 14.8332 21.8064 16.9084 21.4376 17.8219L17.9624 18.0858C17.4248 18.1266 16.9992 18.4314 16.8528 18.8811C16.6976 19.3558 16.8888 19.8936 17.3167 20.1876C17.5415 20.3424 19.1759 21.4166 19.9855 21.9479L18.9943 24.9998C18.7807 25.5627 18.9318 25.927 19.0967 26.1334C19.4775 26.6089 20.351 26.6533 20.9766 26.2632C21.2958 26.0638 23.1287 24.89 24.0047 24.33C24.8759 24.8878 26.6943 26.0531 27.0287 26.261C27.3151 26.4402 27.6606 26.5428 27.9791 26.5428C28.3535 26.5428 28.692 26.4001 28.9064 26.1513ZM26.5415 21.8382C26.5415 21.8382 27.0127 23.552 27.3319 24.6964C26.3103 24.0446 24.4703 22.865 24.4703 22.865C24.3311 22.7754 24.1679 22.7309 24.0048 22.7309C23.8416 22.7309 23.6792 22.7754 23.5392 22.865C23.5392 22.865 21.8328 23.9585 20.7808 24.6298L21.6792 21.8669C21.7736 21.5773 21.6543 21.266 21.3832 21.0875C21.3832 21.0875 19.8105 20.0563 18.8992 19.454L22.0833 19.2123C22.3944 19.1886 22.6617 19.0051 22.7681 18.7419C22.7681 18.7419 23.5913 16.699 24.0425 15.5811L25.4714 18.7655C25.5834 19.0158 25.8434 19.1886 26.1425 19.2122C26.1425 19.2122 28.0713 19.3664 29.193 19.4546L26.8274 21.0995C26.5784 21.2731 26.4656 21.5628 26.5415 21.8382Z" fill="#FB84EE"/>
<path d="M10.4 26.1728C10.4 26.7658 10.9384 27.2484 11.6 27.2484C12.2616 27.2484 12.8 26.7658 12.8 26.1728C12.8 25.5798 12.2616 25.0972 11.6 25.0972C10.9384 25.0972 10.4 25.5798 10.4 26.1728ZM12 26.1728C12 26.3707 11.82 26.5313 11.6 26.5313C11.3799 26.5313 11.1999 26.3707 11.1999 26.1728C11.1999 25.9748 11.3799 25.8142 11.6 25.8142C11.82 25.8142 12 25.9748 12 26.1728Z" fill="#FB84EE"/>
<path d="M4.65197 22.2289H15.2C15.6424 22.2289 15.9999 21.9077 15.9999 21.5119C15.9999 21.1161 15.6424 20.7949 15.2 20.7949H4.65197C4.32084 19.9616 3.44156 19.3607 2.4 19.3607C1.07681 19.3607 0 20.3259 0 21.5119C0 22.6979 1.07681 23.6631 2.4 23.6631C3.44156 23.6631 4.32084 23.0622 4.65197 22.2289ZM2.4 22.2289C1.95844 22.2289 1.60003 21.907 1.60003 21.5119C1.60003 21.1168 1.95844 20.7949 2.4 20.7949C2.84156 20.7949 3.19997 21.1168 3.19997 21.5119C3.19997 21.907 2.84156 22.2289 2.4 22.2289Z" fill="#FB84EE"/>
<path d="M8.75525 35.4157C8.54169 35.2042 8.20484 35.1267 7.90569 35.2192L6.8705 35.5369L6.15453 34.7452C5.94097 34.5093 5.5849 34.4175 5.26569 34.5208C4.94647 34.6218 4.7329 34.8929 4.7329 35.1962V36.1872L3.57528 36.7056C3.30406 36.8276 3.13287 37.0756 3.13287 37.3474C3.13287 37.6191 3.30406 37.8673 3.57528 37.9891L4.7329 38.5076V39.4986C4.7329 39.8091 4.95612 40.0844 5.28575 40.1805C5.36731 40.2042 5.45056 40.2156 5.53297 40.2156C5.78337 40.2156 6.02656 40.1095 6.18012 39.9202L6.8449 39.0998L7.89453 39.4369C8.19612 39.5345 8.53297 39.4613 8.75056 39.2498C8.96815 39.0397 9.02497 38.7335 8.8954 38.471L8.32662 37.3202L8.89381 36.193C9.02403 35.932 8.9704 35.6265 8.75525 35.4157ZM6.68806 37.5375C6.50647 37.508 6.31765 37.5382 6.15847 37.6178C6.08731 37.5382 5.99684 37.4708 5.89044 37.4228L5.72159 37.3475L5.89044 37.2722C6.02647 37.2105 6.1384 37.1173 6.21528 37.0055C6.35928 37.0765 6.52165 37.1065 6.69209 37.0893C6.63762 37.2342 6.63603 37.3919 6.68806 37.5375Z" fill="#FB84EE"/>
<path d="M18.8 31.5508C18.1384 31.5508 17.6 32.0334 17.6 32.6264C17.6 33.2194 18.1384 33.702 18.8 33.702C19.4616 33.702 20 33.2194 20 32.6264C20 32.0334 19.4616 31.5508 18.8 31.5508ZM18.8 32.9848C18.5799 32.9848 18.3999 32.8243 18.3999 32.6263C18.3999 32.4284 18.5799 32.2677 18.8 32.2677C19.02 32.2677 19.2 32.4283 19.2 32.6263C19.2 32.8243 19.02 32.9848 18.8 32.9848Z" fill="#FB84EE"/>
<path d="M24.7999 38.8533V27.9654C24.7999 27.5697 24.4424 27.2484 24 27.2484C23.5576 27.2484 23.2 27.5697 23.2 27.9654V38.8533C22.2712 39.1509 21.6 39.9389 21.6 40.8726C21.6 42.0586 22.6768 43.0238 24 43.0238C25.3232 43.0238 26.4 42.0586 26.4 40.8726C26.4 39.939 25.7288 39.1509 24.7999 38.8533ZM24 41.5896C23.5584 41.5896 23.2 41.2677 23.2 40.8726C23.2 40.4775 23.5584 40.1555 24 40.1555C24.4415 40.1555 24.7999 40.4775 24.7999 40.8726C24.7999 41.2677 24.4415 41.5896 24 41.5896Z" fill="#FB84EE"/>
<path d="M17.3656 27.4585C17.0527 27.1781 16.5471 27.1781 16.2344 27.4585L9.83436 33.195C9.52152 33.4753 9.52152 33.9286 9.83436 34.2089C9.99036 34.3487 10.1952 34.419 10.4 34.419C10.6048 34.419 10.8096 34.3487 10.9656 34.2089L17.3656 28.4724C17.6784 28.1921 17.6784 27.7388 17.3656 27.4585Z" fill="#FB84EE"/>
</svg>
