<svg width="121" height="103" viewBox="0 0 121 103" fill="none" xmlns="http://www.w3.org/2000/svg">
<g clip-path="url(#clip0_1_10)">
<path d="M74.5235 93.2465C72.185 100.478 64.5899 96.3238 71.2497 79.8601C87.076 40.7348 89.9024 34.5048 93.1652 28.3562C96.4967 22.0785 95.0921 23.2525 94.3516 24.2572C82.7578 39.9901 74.8914 63.5179 74.5359 64.5888C74.5266 64.615 74.5188 64.6396 74.5079 64.6642C74.1353 65.5689 66.5729 81.9481 66.5729 92.0156C66.5729 96.3208 69.0952 99.0996 70.3143 99.4012C70.9379 99.555 75.0535 102.058 80.7592 80.9372C86.3714 60.1651 93.6189 35.6541 95.5691 24.0064C95.6923 23.274 95.5691 23.2371 95.8809 21.083C96.1755 19.0458 96.1927 18.4672 96.3486 17.0824C96.5824 15.0098 96.5045 14.7744 96.4437 13.365" fill="white"/>
<path d="M111.314 59.3958C103.554 51.7363 87.5328 52.1548 87.6185 54.1643L87.9303 52.164C87.9303 52.164 118.309 45.4016 116.771 73.2438C116.303 81.7065 105.846 104.55 89.8572 102.917C74.3816 101.335 77.183 85.7316 78.8511 79.957C80.5191 74.1824 83.3003 66.7814 83.3003 66.7814H84.1904C84.1904 66.7814 83.5965 68.8309 82.1139 74.3932C81.177 77.909 80.2416 80.9356 79.3562 84.0145C77.5852 90.1722 80.8855 100.327 90.1128 100.786C102.168 101.385 111.94 88.2427 114.588 75.8595C115.301 72.5329 115.039 69.5895 114.744 66.7814C114.421 63.7087 113.015 61.0745 111.314 59.3958Z" fill="white"/>
<path d="M95.8762 23.2864C95.8762 23.2864 102.52 13.482 110.27 13.6666C118.019 13.8513 124.815 25.3174 118.532 37.1252C112.25 48.9329 102.117 52.318 102.117 52.318L101.025 52.1641C101.025 52.1641 113.029 47.0865 117.394 36.4697C122.684 23.6034 114.728 15.9485 110.223 15.5438C103.364 14.9283 98.3752 21.8524 95.5691 25.5452C92.763 29.238 95.8762 23.2864 95.8762 23.2864Z" fill="white"/>
<path d="M71.0937 0.00309258C71.0937 0.00309258 70.0913 -0.19078 67.7404 2.62037C65.3895 5.43151 66.1862 4.43292 66.1862 4.43292C63.8509 7.08097 59.8257 12.3863 56.1279 19.8504C54.5736 22.9877 53.3811 26.2712 52.2306 30.1595C51.3342 33.1922 50.0901 36.6372 49.6458 40.0962C47.2731 58.5417 43.3493 90.1737 53.2049 89.869C62.6973 89.5767 64.4776 70.8388 62.1033 63.5193C58.7251 53.101 50.2382 43.0243 50.2382 43.0243L49.942 43.9028C49.942 43.9028 55.0912 48.4342 59.1382 59.4203C63.8852 72.302 60.9185 81.9649 57.0617 84.893C53.2049 87.821 48.4595 84.6006 48.7557 71.1326C48.9256 63.3824 49.4884 30.9596 61.2724 13.2372C64.5462 8.31344 63.7106 9.30126 65.1697 7.39024" fill="white"/>
<path d="M11.3787 86.3148C16.333 85.1516 27.4077 77.8845 32.0705 63.3487C35.6061 52.3257 43.0906 28.5748 52.5097 14.3775C53.8348 12.3788 55.3984 10.3985 56.8202 8.86598C58.6675 6.87494 60.3371 5.54399 62.5196 4.15919C65.5939 2.2097 67.9447 1.42651 69.2231 0.774119C73.0565 -1.18461 69.6783 1.24341 66.7444 2.56667C65.6344 3.06673 64.2812 3.86838 62.8782 4.66695C59.5078 6.58567 47.161 15.4438 33.818 62.7671C28.5722 81.3726 17.4975 88.9321 10.2111 88.9321C4.67528 88.9321 -0.279025 83.4083 0.0124964 76.7212C0.304018 70.0342 -0.862067 75.2672 3.21767 82.8267C6.12197 88.2074 11.3771 86.3148 11.3771 86.3148H11.3787Z" fill="white"/>
<path d="M50.3209 43.2797C49.808 41.8303 38.5853 33.1645 25.4434 34.6354C12.3016 36.1064 5.0042 52.2286 22.059 62.5192C30.6924 67.7276 62.1361 64.5072 62.1361 64.5072V63.9209C62.1361 63.9209 58.8733 64.2133 36.9219 64.2133C32.7205 64.2133 25.9205 62.8362 22.3863 61.2852C19.7159 60.1143 17.3432 58.0647 15.8606 55.7229C14.5075 53.5872 12.9423 50.9561 12.894 47.8172C12.8082 42.2072 17.1125 35.7079 26.2432 35.5202C41.145 35.214 50.2056 44.1613 50.2056 44.1613L50.3209 43.2781V43.2797Z" fill="white"/>
<path d="M28.9209 52.1456C33.7793 47.7991 34.97 41.2835 31.5804 37.5927C28.1909 33.9018 21.5046 34.4334 16.6462 38.7799C11.7879 43.1264 10.5971 49.6419 13.9867 53.3328C17.3762 57.0236 24.0625 56.4921 28.9209 52.1456Z" stroke="white" stroke-miterlimit="10"/>
<path d="M56.6798 64.0749C56.6798 64.0749 67.8714 63.8949 75.4603 58.6265C83.0492 53.3581 89.4908 52.1641 89.4908 52.1641V53.2411C89.4908 53.2411 85.9598 54.0736 81.0725 56.3185C77.9312 57.7617 74.0323 60.5437 71.0953 61.7038C63.3006 64.7811 56.6798 64.6611 56.6798 64.6611V64.0749Z" fill="white"/>
</g>
<defs>
<clipPath id="clip0_1_10">
<rect width="121" height="103" fill="white"/>
</clipPath>
</defs>
</svg>
