<svg width="36" height="44" viewBox="0 0 36 44" fill="none" xmlns="http://www.w3.org/2000/svg">
<path d="M18 43.0238C18 43.0238 36 27.7342 36 16.1339C36 11.8549 34.1036 7.75121 30.7279 4.72551C27.3523 1.69982 22.7739 0 18 0C13.2261 0 8.64773 1.69982 5.27208 4.72551C1.89642 7.75121 7.11366e-08 11.8549 0 16.1339C0 27.7342 18 43.0238 18 43.0238ZM18 24.2009C15.6131 24.2009 13.3239 23.351 11.636 21.8381C9.94821 20.3253 9 18.2734 9 16.1339C9 13.9944 9.94821 11.9426 11.636 10.4297C13.3239 8.91686 15.6131 8.06695 18 8.06695C20.3869 8.06695 22.6761 8.91686 24.364 10.4297C26.0518 11.9426 27 13.9944 27 16.1339C27 18.2734 26.0518 20.3253 24.364 21.8381C22.6761 23.351 20.3869 24.2009 18 24.2009Z" fill="#FB84EE"/>
</svg>
