<svg width="48" height="48" viewBox="0 0 48 48" fill="none" xmlns="http://www.w3.org/2000/svg">
<path d="M35.4598 6.27281C34.354 5.56031 33.7998 5.00597 33.0874 3.90047C32.9521 3.69056 32.7194 3.56372 32.4698 3.56372C32.2201 3.56372 31.9874 3.69056 31.8521 3.90047C31.1396 5.00606 30.5854 5.56041 29.4797 6.27281C29.2698 6.4081 29.1429 6.64069 29.1429 6.89044C29.1429 7.14019 29.2698 7.37278 29.4797 7.50806C30.5855 8.22056 31.1397 8.77491 31.8521 9.8805C31.9874 10.0904 32.2201 10.2173 32.4698 10.2173C32.7194 10.2173 32.9521 10.0904 33.0874 9.8805C33.7998 8.77481 34.3541 8.22056 35.4598 7.50806C35.6697 7.37278 35.7966 7.14019 35.7966 6.89044C35.7966 6.64069 35.6698 6.4081 35.4598 6.27281ZM32.4697 8.20828C32.0717 7.70053 31.6596 7.28831 31.1518 6.89044C31.6596 6.49247 32.0717 6.08025 32.4697 5.5726C32.8676 6.08035 33.2798 6.49256 33.7875 6.89044C33.2798 7.28841 32.8675 7.70063 32.4697 8.20828Z" fill="#FB84EE"/>
<path d="M28.9278 9.84454L27.1643 8.08119C26.8775 7.79413 26.4123 7.79432 26.1254 8.08119L24.3621 9.84444C24.2244 9.98226 24.147 10.1691 24.147 10.3639C24.147 10.5587 24.2244 10.7457 24.3622 10.8835L26.1256 12.6467C26.269 12.7902 26.4571 12.8619 26.645 12.8619C26.833 12.8619 27.0211 12.7902 27.1646 12.6466L28.9278 10.8834C29.2147 10.5965 29.2147 10.1313 28.9278 9.84454ZM26.6451 11.0882L25.9206 10.3639L26.6448 9.63969L27.3693 10.364L26.6451 11.0882Z" fill="#FB84EE"/>
<path d="M10.4134 5.24047L8.6501 3.47722C8.36332 3.19016 7.89804 3.19026 7.61116 3.47722L5.84782 5.24047C5.71001 5.37819 5.63257 5.56513 5.63257 5.75994C5.63257 5.95476 5.70991 6.14169 5.84782 6.27951L7.61126 8.04276C7.75469 8.18619 7.94276 8.25791 8.13072 8.25791C8.31869 8.25791 8.50676 8.18619 8.65029 8.04266L10.4134 6.27941C10.7004 5.99254 10.7004 5.52735 10.4134 5.24047ZM8.13082 6.48416L7.40632 5.75985L8.13063 5.03563L8.85504 5.75994L8.13082 6.48416Z" fill="#FB84EE"/>
<path d="M45.6667 23.7811C45.4377 23.4461 44.9804 23.3605 44.6455 23.5896C44.3107 23.8187 44.2249 24.2759 44.4541 24.6108C45.8126 26.5963 46.5307 28.9227 46.5307 31.3387C46.5307 37.9168 41.1789 43.2686 34.6008 43.2686C28.0227 43.2686 22.671 37.9168 22.671 31.3387C22.671 28.1888 23.8991 25.3211 25.9004 23.1867C26.27 23.8521 26.5708 24.5548 26.7974 25.2849C25.4962 26.9585 24.7197 29.0594 24.7197 31.3388C24.7197 36.7874 29.1524 41.2202 34.6008 41.2202C40.0493 41.2202 44.4821 36.7874 44.4821 31.3388C44.4821 25.8902 40.0493 21.4574 34.6008 21.4574C33.3106 21.4574 32.0778 21.707 30.9469 22.159C30.6713 21.5276 30.3553 20.9177 30.0043 20.3311C30.7427 20.0216 31.5188 19.7848 32.3233 19.6286L33.9392 20.9251C34.1207 21.0706 34.3489 21.1508 34.5814 21.1508H34.6201C34.8535 21.1508 35.0821 21.0703 35.263 20.9247L36.879 19.6282C39.043 20.0469 41.0567 21.0587 42.7013 22.5803C42.999 22.8558 43.4636 22.8378 43.7395 22.54C44.0151 22.2422 43.9971 21.7774 43.6993 21.5018C42.1512 20.0692 40.3118 19.0387 38.3259 18.4654C38.9762 17.9171 39.3473 17.1235 39.3473 16.2682C39.3473 14.6819 38.0569 13.3913 36.4706 13.3913C35.7789 13.3913 35.1217 13.6353 34.6012 14.0814C34.0804 13.635 33.4233 13.3913 32.7317 13.3913C31.1454 13.3913 29.8549 14.6819 29.8549 16.2682C29.8549 17.1242 30.2266 17.9183 30.8778 18.4666C30.2944 18.6355 29.7277 18.8438 29.1797 19.087C26.9919 16.0958 23.8021 13.8821 20.1076 12.9458L20.4476 12.673C21.2654 12.0376 21.7342 11.08 21.7342 10.0448C21.7342 8.21007 20.2416 6.71729 18.4067 6.71729C17.5616 6.71729 16.7611 7.032 16.1437 7.60519C15.5264 7.032 14.7258 6.71729 13.8807 6.71729C12.0459 6.71729 10.5532 8.20997 10.5532 10.0448C10.5532 11.08 11.022 12.0375 11.8399 12.6731L12.1798 12.9458C5.18841 14.7176 0 21.0608 0 28.5948C0 32.4847 1.40297 36.2423 3.95072 39.1756C4.09594 39.3428 4.30022 39.4285 4.50563 39.4285C4.67644 39.4285 4.848 39.3694 4.98712 39.2486C5.29341 38.9826 5.32613 38.5184 5.05997 38.2121C2.74462 35.5462 1.46934 32.1308 1.46934 28.5949C1.46934 21.3508 6.74588 15.3163 13.6574 14.132L15.4385 15.5611C15.631 15.7157 15.873 15.8007 16.1198 15.8007H16.1668C16.4138 15.8007 16.6559 15.7155 16.8478 15.5612L18.6292 14.132C25.5407 15.3162 30.8172 21.3507 30.8172 28.5949C30.8172 31.5833 29.9378 34.4248 28.2662 36.8646C27.7684 36.2959 27.3526 35.6677 27.0241 34.9871C28.1667 33.0497 28.7687 30.8484 28.7687 28.5948C28.7687 24.3185 26.6236 20.3642 23.0304 18.0171C22.6907 17.7953 22.2354 17.8905 22.0135 18.2304C21.7916 18.5702 21.8872 19.0253 22.2269 19.2473C23.3462 19.9784 24.3056 20.8864 25.08 21.9203C22.6838 24.3425 21.2017 27.6704 21.2017 31.3387C21.2017 33.5903 21.7618 35.713 22.7471 37.5777C20.8393 38.9819 18.5179 39.7508 16.1434 39.7508C9.99197 39.7508 4.98731 34.7462 4.98731 28.5948C4.98731 22.4434 9.99197 17.4387 16.1434 17.4387C17.3436 17.4387 18.5246 17.629 19.6539 18.0043C20.0386 18.1323 20.4548 17.9239 20.5828 17.5389C20.7109 17.1538 20.5024 16.738 20.1173 16.61C18.8384 16.1848 17.5013 15.9693 16.1435 15.9693C9.18178 15.9693 3.51797 21.633 3.51797 28.5948C3.51797 35.5565 9.18169 41.2202 16.1435 41.2202C18.7839 41.2202 21.3672 40.3823 23.5046 38.8462C23.8896 39.4142 24.3174 39.9519 24.7844 40.4546C22.2866 42.2744 19.2488 43.2687 16.1436 43.2687C12.8787 43.2687 9.78853 42.2196 7.20712 40.2347C6.88547 39.9873 6.42413 40.0477 6.17691 40.3693C5.92959 40.691 5.98978 41.1523 6.31153 41.3995C9.15187 43.5836 12.5517 44.7381 16.1435 44.7381C19.6475 44.7381 23.0733 43.5867 25.8607 41.4851C28.2087 43.5107 31.2637 44.7381 34.6009 44.7381C41.9891 44.7381 48 38.7272 48 31.3387C48 28.6255 47.1932 26.0122 45.6667 23.7811ZM32.7314 14.8608C33.0997 14.8608 33.4478 15.0021 33.7119 15.2588C33.8104 15.3543 33.8938 15.4626 33.9601 15.5807C34.0902 15.8123 34.3352 15.9559 34.6009 15.9559C34.8666 15.9559 35.1115 15.8124 35.2417 15.5807C35.3078 15.4626 35.3914 15.3543 35.49 15.2585C35.754 15.0019 36.1022 14.8607 36.4703 14.8607C37.2464 14.8607 37.8777 15.492 37.8777 16.2681C37.8777 16.7068 37.6784 17.1127 37.3308 17.3817C37.3274 17.3843 37.3241 17.387 37.3207 17.3898L34.6008 19.572L31.8808 17.3898C31.8774 17.3871 31.8742 17.3844 31.8707 17.3817C31.5232 17.1128 31.3237 16.7068 31.3237 16.2681C31.324 15.4921 31.9553 14.8608 32.7314 14.8608ZM19.5425 11.5153C19.539 11.5179 19.5357 11.5206 19.5322 11.5234L16.1432 14.2425L12.7543 11.5234C12.7509 11.5207 12.7477 11.518 12.7441 11.5153C12.2853 11.1602 12.0221 10.6243 12.0221 10.0449C12.0221 9.02025 12.8558 8.18672 13.8803 8.18672C14.3666 8.18672 14.8264 8.37329 15.1751 8.7121C15.3047 8.838 15.4149 8.98107 15.5028 9.13744C15.6329 9.369 15.8779 9.51235 16.1435 9.51235C16.4092 9.51225 16.654 9.36891 16.7841 9.13725C16.8717 8.98116 16.982 8.8381 17.1117 8.712C17.4604 8.37338 17.92 8.18672 18.4063 8.18672C19.4309 8.18672 20.2645 9.02025 20.2645 10.0449C20.2644 10.6243 20.0013 11.1603 19.5425 11.5153ZM32.2867 28.5948C32.2867 26.8271 32.0003 25.1253 31.4727 23.5323C32.44 23.1425 33.4954 22.9267 34.6008 22.9267C39.2392 22.9267 43.0127 26.7003 43.0127 31.3386C43.0127 35.977 39.2391 39.7507 34.6008 39.7507C32.6107 39.7507 30.7815 39.0539 29.3398 37.8937C31.2699 35.165 32.2867 31.9647 32.2867 28.5948ZM27.2992 28.5948C27.2992 30.1363 26.9789 31.6496 26.3663 33.0491C26.251 32.4967 26.1891 31.925 26.1891 31.3388C26.1891 29.8775 26.5656 28.5034 27.2238 27.305C27.273 27.73 27.2992 28.1603 27.2992 28.5948Z" fill="#FB84EE"/>
</svg>
